<svg version="1.1" xmlns="http://www.w3.org/2000/svg" xmlns:xlink="http://www.w3.org/1999/xlink" width="672" height="512"><defs><clipPath id="CFUwZoEqzhif"><path fill="none" stroke="none" d=" M 0 0 L 672 0 L 672 512 L 0 512 L 0 0 Z"/></clipPath></defs><g transform="scale(1,1)" clip-path="url(#CFUwZoEqzhif)"><g><path fill="rgb(21,101,192)" stroke="none" paint-order="stroke fill markers" fill-rule="evenodd" d=" M 390.80922795574077 398.95833290075876 L 302.17332425858854 187.83019218705516 L 91.0451835448851 276.4660958842074 L 179.68108724203725 487.59423659791094 Z" fill-opacity="0.09803921568627451"/><path fill="none" stroke="rgb(21,101,192)" paint-order="fill stroke markers" d=" M 390.80922795574077 398.95833290075876 L 302.17332425858854 187.83019218705516 L 91.0451835448851 276.4660958842074 L 179.68108724203725 487.59423659791094 Z" stroke-opacity="0.8" stroke-linecap="round" stroke-linejoin="round" stroke-miterlimit="10" stroke-width="2.5"/><path fill="rgb(21,101,192)" stroke="none" paint-order="stroke fill markers" fill-rule="evenodd" d=" M 302.17332425858854 187.83019218705516 L 471.11116259135315 242.493738610751 L 525.774709015049 73.55590027798635 L 356.8368706822844 18.89235385429049 Z" fill-opacity="0.09803921568627451"/><path fill="none" stroke="rgb(21,101,192)" paint-order="fill stroke markers" d=" M 302.17332425858854 187.83019218705516 L 471.11116259135315 242.493738610751 L 525.774709015049 73.55590027798635 L 356.8368706822844 18.89235385429049 Z" stroke-opacity="0.8" stroke-linecap="round" stroke-linejoin="round" stroke-miterlimit="10" stroke-width="2.5"/><path fill="rgb(21,101,192)" stroke="none" paint-order="stroke fill markers" fill-rule="evenodd" d=" M 471.11116259135315 242.493738610751 L 465.31617761764915 334.38564319377144 L 557.2080822006694 340.1806281674755 L 563.0030671743735 248.28872358445506 Z" fill-opacity="0.09803921568627451"/><path fill="none" stroke="rgb(21,101,192)" paint-order="fill stroke markers" d=" M 471.11116259135315 242.493738610751 L 465.31617761764915 334.38564319377144 L 557.2080822006694 340.1806281674755 L 563.0030671743735 248.28872358445506 Z" stroke-opacity="0.8" stroke-linecap="round" stroke-linejoin="round" stroke-miterlimit="10" stroke-width="2.5"/><path fill="rgb(21,101,192)" stroke="none" paint-order="stroke fill markers" fill-rule="evenodd" d=" M 465.31617761764915 334.38564319377144 L 390.80922795574077 398.95833290075876 L 455.38191766272803 473.46528256266714 L 529.8888673246364 408.8925928556798 Z" fill-opacity="0.09803921568627451"/><path fill="none" stroke="rgb(21,101,192)" paint-order="fill stroke markers" d=" M 465.31617761764915 334.38564319377144 L 390.80922795574077 398.95833290075876 L 455.38191766272803 473.46528256266714 L 529.8888673246364 408.8925928556798 Z" stroke-opacity="0.8" stroke-linecap="round" stroke-linejoin="round" stroke-miterlimit="10" stroke-width="2.5"/><path fill="none" stroke="rgb(21,101,192)" paint-order="fill stroke markers" d=" M 302.17332425858854 187.83019218705516 L 91.0451835448851 276.4660958842074" stroke-opacity="0.8" stroke-linecap="round" stroke-linejoin="round" stroke-miterlimit="10" stroke-width="3.5"/><path fill="none" stroke="rgb(21,101,192)" paint-order="fill stroke markers" d=" M 91.0451835448851 276.4660958842074 L 179.68108724203725 487.59423659791094" stroke-opacity="0.8" stroke-linecap="round" stroke-linejoin="round" stroke-miterlimit="10" stroke-width="3.5"/><path fill="none" stroke="rgb(21,101,192)" paint-order="fill stroke markers" d=" M 179.68108724203725 487.59423659791094 L 390.80922795574077 398.95833290075876" stroke-opacity="0.8" stroke-linecap="round" stroke-linejoin="round" stroke-miterlimit="10" stroke-width="3.5"/><path fill="none" stroke="rgb(21,101,192)" paint-order="fill stroke markers" d=" M 471.11116259135315 242.493738610751 L 525.774709015049 73.55590027798635" stroke-opacity="0.8" stroke-linecap="round" stroke-linejoin="round" stroke-miterlimit="10" stroke-width="3.5"/><path fill="none" stroke="rgb(21,101,192)" paint-order="fill stroke markers" d=" M 525.774709015049 73.55590027798635 L 356.8368706822844 18.89235385429049" stroke-opacity="0.8" stroke-linecap="round" stroke-linejoin="round" stroke-miterlimit="10" stroke-width="3.5"/><path fill="none" stroke="rgb(21,101,192)" paint-order="fill stroke markers" d=" M 356.8368706822844 18.89235385429049 L 302.17332425858854 187.83019218705516" stroke-opacity="0.8" stroke-linecap="round" stroke-linejoin="round" stroke-miterlimit="10" stroke-width="3.5"/><path fill="none" stroke="rgb(21,101,192)" paint-order="fill stroke markers" d=" M 465.31617761764915 334.38564319377144 L 557.2080822006694 340.1806281674755" stroke-opacity="0.8" stroke-linecap="round" stroke-linejoin="round" stroke-miterlimit="10" stroke-width="3.5"/><path fill="none" stroke="rgb(21,101,192)" paint-order="fill stroke markers" d=" M 557.2080822006694 340.1806281674755 L 563.0030671743735 248.28872358445506" stroke-opacity="0.8" stroke-linecap="round" stroke-linejoin="round" stroke-miterlimit="10" stroke-width="3.5"/><path fill="none" stroke="rgb(21,101,192)" paint-order="fill stroke markers" d=" M 563.0030671743735 248.28872358445506 L 471.11116259135315 242.493738610751" stroke-opacity="0.8" stroke-linecap="round" stroke-linejoin="round" stroke-miterlimit="10" stroke-width="3.5"/><path fill="none" stroke="rgb(21,101,192)" paint-order="fill stroke markers" d=" M 390.80922795574077 398.95833290075876 L 455.38191766272803 473.46528256266714" stroke-opacity="0.8" stroke-linecap="round" stroke-linejoin="round" stroke-miterlimit="10" stroke-width="3.5"/><path fill="none" stroke="rgb(21,101,192)" paint-order="fill stroke markers" d=" M 455.38191766272803 473.46528256266714 L 529.8888673246364 408.8925928556798" stroke-opacity="0.8" stroke-linecap="round" stroke-linejoin="round" stroke-miterlimit="10" stroke-width="3.5"/><path fill="none" stroke="rgb(21,101,192)" paint-order="fill stroke markers" d=" M 529.8888673246364 408.8925928556798 L 465.31617761764915 334.38564319377144" stroke-opacity="0.8" stroke-linecap="round" stroke-linejoin="round" stroke-miterlimit="10" stroke-width="3.5"/><path fill="none" stroke="rgb(219,97,20)" paint-order="fill stroke markers" d=" M 240.9272057503129 337.7122143924831 L 514.1596223960114 291.33718338911325" stroke-opacity="0.8" stroke-linecap="round" stroke-linejoin="round" stroke-miterlimit="10" stroke-width="3.5"/><path fill="none" stroke="rgb(219,97,20)" paint-order="fill stroke markers" d=" M 413.97401663681876 130.69304623252074 L 460.3490476401886 403.9254628782193" stroke-opacity="0.8" stroke-linecap="round" stroke-linejoin="round" stroke-miterlimit="10" stroke-width="3.5"/><path fill="none" stroke="rgb(0,0,0)" paint-order="fill stroke markers" d=" M 390.80922795574077 398.95833290075876 L 309.5280670242239 205.34897521703" stroke-opacity="0.8" stroke-linecap="round" stroke-linejoin="round" stroke-miterlimit="10" stroke-width="3.5"/><path fill="rgb(0,0,0)" stroke="none" paint-order="stroke fill markers" fill-rule="evenodd" d=" M 302.17332425858854 187.83019218705516 L 313.9077627817176 203.51028952562115 L 305.1483712667302 207.18766090843883 Z" fill-opacity="0.8"/><path fill="none" stroke="rgb(0,0,0)" paint-order="fill stroke markers" d=" M 302.17332425858854 187.83019218705516 L 453.03394198461416 236.64445701936805" stroke-opacity="0.8" stroke-linecap="round" stroke-linejoin="round" stroke-miterlimit="10" stroke-width="3.5"/><path fill="rgb(0,0,0)" stroke="none" paint-order="stroke fill markers" fill-rule="evenodd" d=" M 471.11116259135315 242.493738610751 L 451.5716215867684 241.16376217105278 L 454.4962623824599 232.12515186768331 Z" fill-opacity="0.8"/><path fill="none" stroke="rgb(0,0,0)" paint-order="fill stroke markers" d=" M 471.11116259135315 242.493738610751 L 466.5120003118332 315.4233119002813" stroke-opacity="0.8" stroke-linecap="round" stroke-linejoin="round" stroke-miterlimit="10" stroke-width="3.5"/><path fill="rgb(0,0,0)" stroke="none" paint-order="stroke fill markers" fill-rule="evenodd" d=" M 465.31617761764915 334.38564319377144 L 461.7714174884607 315.1243562267353 L 471.2525831352057 315.7222675738273 Z" fill-opacity="0.8"/><path fill="none" stroke="rgb(0,0,0)" paint-order="fill stroke markers" d=" M 465.31617761764915 334.38564319377144 L 405.16732052874727 386.51465267081977" stroke-opacity="0.8" stroke-linecap="round" stroke-linejoin="round" stroke-miterlimit="10" stroke-width="3.5"/><path fill="rgb(0,0,0)" stroke="none" paint-order="stroke fill markers" fill-rule="evenodd" d=" M 390.80922795574077 398.95833290075876 L 402.0564004712625 382.9251295275681 L 408.278240586232 390.1041758140714 Z" fill-opacity="0.8"/><path fill="rgb(0,0,0)" stroke="none" paint-order="stroke fill markers" d=" M 395.80922795574077 398.95833290075876 C 395.80922795574077 401.7197566499127 393.5706517048947 403.95833290075876 390.80922795574077 403.95833290075876 C 388.0478042065868 403.95833290075876 385.80922795574077 401.7197566499127 385.80922795574077 398.95833290075876 C 385.80922795574077 396.1969091516048 388.0478042065868 393.95833290075876 390.80922795574077 393.95833290075876 C 393.5706517048947 393.95833290075876 395.80922795574077 396.1969091516048 395.80922795574077 398.95833290075876 Z" fill-opacity="1"/><path fill="none" stroke="rgb(0,0,0)" paint-order="fill stroke markers" d=" M 395.80922795574077 398.95833290075876 C 395.80922795574077 401.7197566499127 393.5706517048947 403.95833290075876 390.80922795574077 403.95833290075876 C 388.0478042065868 403.95833290075876 385.80922795574077 401.7197566499127 385.80922795574077 398.95833290075876 C 385.80922795574077 396.1969091516048 388.0478042065868 393.95833290075876 390.80922795574077 393.95833290075876 C 393.5706517048947 393.95833290075876 395.80922795574077 396.1969091516048 395.80922795574077 398.95833290075876 Z" stroke-opacity="1" stroke-linecap="round" stroke-linejoin="round" stroke-miterlimit="10"/><g transform="scale(19,19)"><g transform="translate(20.105263157894736,22.392873684210528) scale(1.4,1.4)"><g transform="translate(0,0)"><path fill="rgb(0,0,0)" stroke="none" paint-order="stroke fill markers" d=" M 0.373 -0.378 Q 0.378 -0.41200000000000003 0.404 -0.42 Q 0.40900000000000003 -0.422 0.41500000000000004 -0.422 Q 0.441 -0.422 0.444 -0.395 Q 0.444 -0.389 0.437 -0.361 L 0.401 -0.221 Q 0.386 -0.158 0.379 -0.131 Q 0.366 -0.079 0.366 -0.057 Q 0.366 -0.011 0.396 -0.011 Q 0.434 -0.011 0.46 -0.091 Q 0.465 -0.108 0.47200000000000003 -0.135 Q 0.48 -0.152 0.486 -0.153 Q 0.498 -0.153 0.498 -0.14300000000000002 Q 0.498 -0.128 0.48 -0.073 Q 0.47400000000000003 -0.056 0.468 -0.044 Q 0.44 0.011 0.394 0.011 Q 0.338 0.011 0.313 -0.037 Q 0.306 -0.049 0.303 -0.064 Q 0.24 0.011 0.17300000000000001 0.011 Q 0.098 0.011 0.062 -0.057 Q 0.04 -0.097 0.04 -0.149 Q 0.04 -0.257 0.115 -0.34900000000000003 Q 0.185 -0.433 0.267 -0.441 Q 0.274 -0.442 0.281 -0.442 Q 0.342 -0.442 0.373 -0.378 M 0.308 -0.11900000000000001 L 0.308 -0.11900000000000001 L 0.358 -0.315 Q 0.361 -0.33 0.361 -0.332 Q 0.361 -0.353 0.343 -0.383 Q 0.321 -0.42 0.28200000000000003 -0.42 Q 0.23 -0.42 0.183 -0.352 Q 0.17400000000000002 -0.339 0.166 -0.324 Q 0.137 -0.266 0.117 -0.159 Q 0.111 -0.125 0.111 -0.105 Q 0.111 -0.037 0.149 -0.017 Q 0.16 -0.011 0.17500000000000002 -0.011 Q 0.231 -0.011 0.28800000000000003 -0.082 Q 0.302 -0.098 0.307 -0.115 L 0.307 -0.116 Q 0.308 -0.11800000000000001 0.308 -0.11900000000000001 Z"/></g></g></g><path fill="rgb(0,0,0)" stroke="none" paint-order="stroke fill markers" d=" M 307.17332425858854 187.83019218705516 C 307.17332425858854 190.59161593620914 304.9347480077425 192.83019218705516 302.17332425858854 192.83019218705516 C 299.4119005094346 192.83019218705516 297.17332425858854 190.59161593620914 297.17332425858854 187.83019218705516 C 297.17332425858854 185.06876843790118 299.4119005094346 182.83019218705516 302.17332425858854 182.83019218705516 C 304.9347480077425 182.83019218705516 307.17332425858854 185.06876843790118 307.17332425858854 187.83019218705516 Z" fill-opacity="1"/><path fill="none" stroke="rgb(0,0,0)" paint-order="fill stroke markers" d=" M 307.17332425858854 187.83019218705516 C 307.17332425858854 190.59161593620914 304.9347480077425 192.83019218705516 302.17332425858854 192.83019218705516 C 299.4119005094346 192.83019218705516 297.17332425858854 190.59161593620914 297.17332425858854 187.83019218705516 C 297.17332425858854 185.06876843790118 299.4119005094346 182.83019218705516 302.17332425858854 182.83019218705516 C 304.9347480077425 182.83019218705516 307.17332425858854 185.06876843790118 307.17332425858854 187.83019218705516 Z" stroke-opacity="1" stroke-linecap="round" stroke-linejoin="round" stroke-miterlimit="10"/><g transform="scale(19,19)"><g transform="translate(14.842105263157896,9.287389473684211) scale(1.4,1.4)"><g transform="translate(0,0)"><path fill="rgb(0,0,0)" stroke="none" paint-order="stroke fill markers" d=" M 0.23900000000000002 -0.683 L 0.165 -0.382 Q 0.223 -0.442 0.28200000000000003 -0.442 Q 0.357 -0.442 0.394 -0.373 Q 0.41500000000000004 -0.333 0.41500000000000004 -0.28200000000000003 Q 0.41500000000000004 -0.176 0.341 -0.084 Q 0.272 0.001 0.189 0.01 Q 0.181 0.011 0.17400000000000002 0.011 Q 0.10200000000000001 0.011 0.067 -0.056 Q 0.047 -0.094 0.047 -0.146 Q 0.047 -0.18 0.063 -0.247 L 0.145 -0.5730000000000001 Q 0.159 -0.632 0.159 -0.635 Q 0.159 -0.646 0.145 -0.649 L 0.145 -0.649 Q 0.133 -0.652 0.109 -0.652 Q 0.08700000000000001 -0.652 0.085 -0.664 Q 0.085 -0.681 0.10400000000000001 -0.684 L 0.226 -0.6940000000000001 Q 0.23900000000000002 -0.6940000000000001 0.23900000000000002 -0.683 M 0.145 -0.305 L 0.123 -0.213 Q 0.107 -0.15 0.107 -0.112 Q 0.107 -0.026000000000000002 0.159 -0.013000000000000001 Q 0.166 -0.011 0.17400000000000002 -0.011 Q 0.227 -0.011 0.273 -0.081 Q 0.28300000000000003 -0.096 0.292 -0.114 Q 0.319 -0.171 0.337 -0.268 Q 0.343 -0.303 0.343 -0.326 Q 0.343 -0.406 0.294 -0.418 L 0.293 -0.419 Q 0.28700000000000003 -0.42 0.28 -0.42 Q 0.22 -0.42 0.16 -0.34 Q 0.152 -0.33 0.145 -0.305 Z"/></g></g></g><path fill="rgb(0,0,0)" stroke="none" paint-order="stroke fill markers" d=" M 476.11116259135315 242.493738610751 C 476.11116259135315 245.25516235990497 473.8725863405071 247.493738610751 471.11116259135315 247.493738610751 C 468.3497388421992 247.493738610751 466.11116259135315 245.25516235990497 466.11116259135315 242.493738610751 C 466.11116259135315 239.73231486159702 468.3497388421992 237.493738610751 471.11116259135315 237.493738610751 C 473.8725863405071 237.493738610751 476.11116259135315 239.73231486159702 476.11116259135315 242.493738610751 Z" fill-opacity="1"/><path fill="none" stroke="rgb(0,0,0)" paint-order="fill stroke markers" d=" M 476.11116259135315 242.493738610751 C 476.11116259135315 245.25516235990497 473.8725863405071 247.493738610751 471.11116259135315 247.493738610751 C 468.3497388421992 247.493738610751 466.11116259135315 245.25516235990497 466.11116259135315 242.493738610751 C 466.11116259135315 239.73231486159702 468.3497388421992 237.493738610751 471.11116259135315 237.493738610751 C 473.8725863405071 237.493738610751 476.11116259135315 239.73231486159702 476.11116259135315 242.493738610751 Z" stroke-opacity="1" stroke-linecap="round" stroke-linejoin="round" stroke-miterlimit="10"/><g transform="scale(19,19)"><g transform="translate(25.473684210526315,12.182347368421054) scale(1.4,1.4)"><g transform="translate(0,0)"><path fill="rgb(0,0,0)" stroke="none" paint-order="stroke fill markers" d=" M 0.396 -0.38 L 0.396 -0.38 Q 0.368 -0.41600000000000004 0.31 -0.42 Q 0.245 -0.42 0.192 -0.354 Q 0.179 -0.338 0.169 -0.32 Q 0.129 -0.247 0.117 -0.148 Q 0.115 -0.132 0.115 -0.12 Q 0.115 -0.038 0.171 -0.017 Q 0.185 -0.011 0.20500000000000002 -0.011 Q 0.295 -0.011 0.367 -0.07100000000000001 Q 0.388 -0.088 0.405 -0.11 Q 0.41200000000000003 -0.12 0.418 -0.12 Q 0.427 -0.12 0.43 -0.107 Q 0.43 -0.096 0.396 -0.064 Q 0.313 0.011 0.203 0.011 Q 0.108 0.011 0.065 -0.065 Q 0.041 -0.106 0.041 -0.158 Q 0.041 -0.26 0.11900000000000001 -0.34700000000000003 Q 0.196 -0.433 0.291 -0.441 Q 0.3 -0.442 0.309 -0.442 Q 0.386 -0.442 0.41600000000000004 -0.395 Q 0.427 -0.377 0.427 -0.356 Q 0.427 -0.312 0.392 -0.296 Q 0.382 -0.292 0.371 -0.292 Q 0.341 -0.292 0.335 -0.318 Q 0.334 -0.322 0.334 -0.327 Q 0.334 -0.34900000000000003 0.352 -0.366 Q 0.366 -0.38 0.396 -0.38 Z"/></g></g></g><path fill="rgb(0,0,0)" stroke="none" paint-order="stroke fill markers" d=" M 470.31617761764915 334.38564319377144 C 470.31617761764915 337.1470669429254 468.0776013668031 339.38564319377144 465.31617761764915 339.38564319377144 C 462.5547538684952 339.38564319377144 460.31617761764915 337.1470669429254 460.31617761764915 334.38564319377144 C 460.31617761764915 331.6242194446175 462.5547538684952 329.38564319377144 465.31617761764915 329.38564319377144 C 468.0776013668031 329.38564319377144 470.31617761764915 331.6242194446175 470.31617761764915 334.38564319377144 Z" fill-opacity="1"/><path fill="none" stroke="rgb(0,0,0)" paint-order="fill stroke markers" d=" M 470.31617761764915 334.38564319377144 C 470.31617761764915 337.1470669429254 468.0776013668031 339.38564319377144 465.31617761764915 339.38564319377144 C 462.5547538684952 339.38564319377144 460.31617761764915 337.1470669429254 460.31617761764915 334.38564319377144 C 460.31617761764915 331.6242194446175 462.5547538684952 329.38564319377144 465.31617761764915 329.38564319377144 C 468.0776013668031 329.38564319377144 470.31617761764915 331.6242194446175 470.31617761764915 334.38564319377144 Z" stroke-opacity="1" stroke-linecap="round" stroke-linejoin="round" stroke-miterlimit="10"/><g transform="scale(19,19)"><g transform="translate(24.894736842105264,17.18212631578947) scale(1.4,1.4)"><g transform="translate(0,0)"><path fill="rgb(0,0,0)" stroke="none" paint-order="stroke fill markers" d=" M 0.516 -0.683 L 0.372 -0.105 Q 0.366 -0.08 0.366 -0.057 Q 0.366 -0.011 0.396 -0.011 Q 0.434 -0.011 0.46 -0.091 Q 0.465 -0.108 0.47200000000000003 -0.135 Q 0.48 -0.152 0.486 -0.153 Q 0.498 -0.153 0.498 -0.14300000000000002 Q 0.498 -0.128 0.48 -0.073 Q 0.47400000000000003 -0.056 0.468 -0.044 Q 0.44 0.011 0.394 0.011 Q 0.338 0.011 0.313 -0.037 Q 0.306 -0.049 0.303 -0.064 Q 0.24 0.011 0.17300000000000001 0.011 Q 0.098 0.011 0.062 -0.057 Q 0.04 -0.097 0.04 -0.149 Q 0.04 -0.257 0.115 -0.34900000000000003 Q 0.185 -0.433 0.267 -0.441 Q 0.274 -0.442 0.281 -0.442 Q 0.342 -0.442 0.373 -0.378 L 0.433 -0.615 L 0.436 -0.635 Q 0.436 -0.646 0.422 -0.649 Q 0.41000000000000003 -0.652 0.386 -0.652 Q 0.364 -0.652 0.362 -0.664 Q 0.362 -0.681 0.376 -0.683 Q 0.47000000000000003 -0.6940000000000001 0.503 -0.6940000000000001 Q 0.516 -0.6940000000000001 0.516 -0.683 M 0.308 -0.11900000000000001 L 0.308 -0.11900000000000001 L 0.358 -0.315 Q 0.361 -0.33 0.361 -0.332 Q 0.361 -0.353 0.343 -0.383 Q 0.321 -0.42 0.28200000000000003 -0.42 Q 0.23 -0.42 0.183 -0.352 Q 0.17400000000000002 -0.339 0.166 -0.324 Q 0.137 -0.266 0.117 -0.159 Q 0.111 -0.125 0.111 -0.105 Q 0.111 -0.037 0.149 -0.017 Q 0.16 -0.011 0.17500000000000002 -0.011 Q 0.231 -0.011 0.28800000000000003 -0.082 Q 0.302 -0.098 0.307 -0.115 L 0.307 -0.116 Q 0.308 -0.11800000000000001 0.308 -0.11900000000000001 Z"/></g></g></g><path fill="rgb(219,97,20)" stroke="none" paint-order="stroke fill markers" d=" M 244.9272057503129 337.7122143924831 C 244.9272057503129 339.92135339180624 243.13634474963607 341.7122143924831 240.9272057503129 341.7122143924831 C 238.71806675098972 341.7122143924831 236.9272057503129 339.92135339180624 236.9272057503129 337.7122143924831 C 236.9272057503129 335.5030753931599 238.71806675098972 333.7122143924831 240.9272057503129 333.7122143924831 C 243.13634474963607 333.7122143924831 244.9272057503129 335.5030753931599 244.9272057503129 337.7122143924831 Z" fill-opacity="1"/><path fill="none" stroke="rgb(0,0,0)" paint-order="fill stroke markers" d=" M 244.9272057503129 337.7122143924831 C 244.9272057503129 339.92135339180624 243.13634474963607 341.7122143924831 240.9272057503129 341.7122143924831 C 238.71806675098972 341.7122143924831 236.9272057503129 339.92135339180624 236.9272057503129 337.7122143924831 C 236.9272057503129 335.5030753931599 238.71806675098972 333.7122143924831 240.9272057503129 333.7122143924831 C 243.13634474963607 333.7122143924831 244.9272057503129 335.5030753931599 244.9272057503129 337.7122143924831 Z" stroke-opacity="1" stroke-linecap="round" stroke-linejoin="round" stroke-miterlimit="10"/><g transform="scale(19,19)"><g transform="translate(11.421052631578947,17.55076842105263) scale(1.4,1.4)"><g transform="translate(0,0)"><path fill="rgb(219,97,20)" stroke="none" paint-order="stroke fill markers" d=" M 0.045 0.122 L 0.045 0.122 L 0.157 -0.323 Q 0.164 -0.353 0.164 -0.374 Q 0.164 -0.42 0.133 -0.42 Q 0.092 -0.42 0.066 -0.325 Q 0.063 -0.314 0.06 -0.301 Q 0.049 -0.279 0.043000000000000003 -0.278 Q 0.031 -0.278 0.031 -0.28800000000000003 Q 0.031 -0.304 0.049 -0.355 Q 0.056 -0.373 0.062 -0.385 Q 0.08600000000000001 -0.434 0.122 -0.441 Q 0.129 -0.442 0.136 -0.442 Q 0.19 -0.442 0.215 -0.398 L 0.215 -0.397 Q 0.223 -0.384 0.226 -0.367 Q 0.289 -0.442 0.357 -0.442 Q 0.428 -0.442 0.466 -0.378 Q 0.488 -0.333 0.49 -0.28200000000000003 Q 0.49 -0.17400000000000002 0.41400000000000003 -0.082 Q 0.34500000000000003 0.002 0.263 0.01 Q 0.256 0.011 0.249 0.011 Q 0.186 0.011 0.157 -0.053 Q 0.12 0.079 0.109 0.14100000000000001 Q 0.108 0.146 0.108 0.147 Q 0.108 0.158 0.121 0.161 L 0.122 0.161 L 0.122 0.161 Q 0.134 0.163 0.158 0.163 Q 0.18 0.163 0.182 0.17400000000000002 Q 0.182 0.194 0.164 0.194 L 0.066 0.191 L 0.065 0.191 L -0.017 0.194 L -0.019 0.194 Q -0.032 0.194 -0.032 0.182 Q -0.026000000000000002 0.164 -0.009000000000000001 0.163 Q 0.028 0.163 0.036000000000000004 0.15 L 0.037 0.149 Q 0.039 0.145 0.041 0.138 Q 0.042 0.133 0.045 0.122 M 0.221 -0.312 L 0.221 -0.312 L 0.17200000000000001 -0.116 Q 0.169 -0.10400000000000001 0.169 -0.1 Q 0.169 -0.077 0.187 -0.048 Q 0.198 -0.029 0.215 -0.019 Q 0.23 -0.011 0.248 -0.011 Q 0.299 -0.011 0.34400000000000003 -0.075 Q 0.357 -0.093 0.367 -0.114 Q 0.394 -0.171 0.41200000000000003 -0.268 Q 0.418 -0.303 0.418 -0.326 Q 0.418 -0.405 0.37 -0.418 Q 0.362 -0.42 0.354 -0.42 Q 0.316 -0.42 0.273 -0.382 Q 0.23 -0.34600000000000003 0.221 -0.312 Z"/></g></g></g><path fill="rgb(219,97,20)" stroke="none" paint-order="stroke fill markers" d=" M 417.97401663681876 130.69304623252074 C 417.97401663681876 132.90218523184393 416.1831556361419 134.69304623252074 413.97401663681876 134.69304623252074 C 411.7648776374956 134.69304623252074 409.97401663681876 132.90218523184393 409.97401663681876 130.69304623252074 C 409.97401663681876 128.48390723319756 411.7648776374956 126.69304623252074 413.97401663681876 126.69304623252074 C 416.1831556361419 126.69304623252074 417.97401663681876 128.48390723319756 417.97401663681876 130.69304623252074 Z" fill-opacity="1"/><path fill="none" stroke="rgb(0,0,0)" paint-order="fill stroke markers" d=" M 417.97401663681876 130.69304623252074 C 417.97401663681876 132.90218523184393 416.1831556361419 134.69304623252074 413.97401663681876 134.69304623252074 C 411.7648776374956 134.69304623252074 409.97401663681876 132.90218523184393 409.97401663681876 130.69304623252074 C 409.97401663681876 128.48390723319756 411.7648776374956 126.69304623252074 413.97401663681876 126.69304623252074 C 416.1831556361419 126.69304623252074 417.97401663681876 128.48390723319756 417.97401663681876 130.69304623252074 Z" stroke-opacity="1" stroke-linecap="round" stroke-linejoin="round" stroke-miterlimit="10"/><g transform="scale(19,19)"><g transform="translate(21.42105263157895,6.129715789473684) scale(1.4,1.4)"><g transform="translate(0,0)"><path fill="rgb(219,97,20)" stroke="none" paint-order="stroke fill markers" d=" M 0.391 -0.374 L 0.391 -0.374 Q 0.37 -0.418 0.301 -0.42 Q 0.22 -0.42 0.195 -0.359 Q 0.189 -0.34400000000000003 0.189 -0.33 Q 0.189 -0.291 0.23700000000000002 -0.277 L 0.23700000000000002 -0.277 L 0.23800000000000002 -0.276 Q 0.245 -0.274 0.265 -0.27 Q 0.327 -0.257 0.34800000000000003 -0.242 Q 0.357 -0.23600000000000002 0.365 -0.228 Q 0.396 -0.197 0.396 -0.155 Q 0.396 -0.10300000000000001 0.357 -0.056 Q 0.301 0.011 0.195 0.011 Q 0.10200000000000001 0.011 0.066 -0.041 Q 0.052000000000000005 -0.061 0.052000000000000005 -0.08600000000000001 Q 0.052000000000000005 -0.135 0.09 -0.149 Q 0.099 -0.152 0.108 -0.152 Q 0.14100000000000001 -0.147 0.145 -0.117 Q 0.145 -0.08600000000000001 0.11800000000000001 -0.07100000000000001 Q 0.10200000000000001 -0.061 0.082 -0.064 Q 0.105 -0.011 0.196 -0.011 Q 0.299 -0.011 0.331 -0.08600000000000001 Q 0.339 -0.105 0.339 -0.121 Q 0.339 -0.169 0.28 -0.187 L 0.28 -0.187 L 0.279 -0.187 Q 0.264 -0.191 0.23500000000000001 -0.197 Q 0.145 -0.216 0.134 -0.277 Q 0.132 -0.28600000000000003 0.132 -0.296 Q 0.132 -0.34600000000000003 0.17 -0.389 Q 0.217 -0.442 0.301 -0.442 Q 0.38 -0.442 0.41000000000000003 -0.393 Q 0.42 -0.376 0.42 -0.356 Q 0.42 -0.311 0.386 -0.302 Q 0.38 -0.3 0.374 -0.3 Q 0.34600000000000003 -0.304 0.343 -0.329 Q 0.343 -0.356 0.37 -0.369 Q 0.38 -0.374 0.391 -0.374 Z"/></g></g></g><path fill="rgb(219,97,20)" stroke="none" paint-order="stroke fill markers" d=" M 518.1596223960114 291.33718338911325 C 518.1596223960114 293.5463223884364 516.3687613953346 295.33718338911325 514.1596223960114 295.33718338911325 C 511.95048339668824 295.33718338911325 510.1596223960114 293.5463223884364 510.1596223960114 291.33718338911325 C 510.1596223960114 289.1280443897901 511.95048339668824 287.33718338911325 514.1596223960114 287.33718338911325 C 516.3687613953346 287.33718338911325 518.1596223960114 289.1280443897901 518.1596223960114 291.33718338911325 Z" fill-opacity="1"/><path fill="none" stroke="rgb(0,0,0)" paint-order="fill stroke markers" d=" M 518.1596223960114 291.33718338911325 C 518.1596223960114 293.5463223884364 516.3687613953346 295.33718338911325 514.1596223960114 295.33718338911325 C 511.95048339668824 295.33718338911325 510.1596223960114 293.5463223884364 510.1596223960114 291.33718338911325 C 510.1596223960114 289.1280443897901 511.95048339668824 287.33718338911325 514.1596223960114 287.33718338911325 C 516.3687613953346 287.33718338911325 518.1596223960114 289.1280443897901 518.1596223960114 291.33718338911325 Z" stroke-opacity="1" stroke-linecap="round" stroke-linejoin="round" stroke-miterlimit="10"/><g transform="scale(19,19)"><g transform="translate(27.42105263157895,14.919189473684211) scale(1.4,1.4)"><g transform="translate(0,0)"><path fill="rgb(219,97,20)" stroke="none" paint-order="stroke fill markers" d=" M 0.452 -0.431 L 0.314 0.125 Q 0.31 0.14300000000000002 0.31 0.147 Q 0.31 0.158 0.323 0.161 L 0.323 0.161 Q 0.334 0.163 0.358 0.163 Q 0.382 0.163 0.384 0.17400000000000002 Q 0.384 0.194 0.366 0.194 L 0.264 0.191 L 0.263 0.191 L 0.164 0.194 L 0.163 0.194 Q 0.15 0.194 0.15 0.183 Q 0.158 0.164 0.17300000000000001 0.163 Q 0.225 0.162 0.23600000000000002 0.15 Q 0.241 0.14400000000000002 0.245 0.13 L 0.29 -0.049 Q 0.23 0.011 0.17200000000000001 0.011 Q 0.10200000000000001 0.011 0.065 -0.052000000000000005 Q 0.04 -0.093 0.04 -0.149 Q 0.04 -0.256 0.115 -0.34800000000000003 Q 0.184 -0.433 0.267 -0.441 Q 0.274 -0.442 0.281 -0.442 Q 0.34500000000000003 -0.442 0.374 -0.372 Q 0.395 -0.40800000000000003 0.428 -0.434 L 0.43 -0.435 Q 0.438 -0.441 0.442 -0.441 Q 0.452 -0.441 0.452 -0.431 M 0.17500000000000002 -0.011 Q 0.228 -0.011 0.28300000000000003 -0.076 Q 0.295 -0.091 0.302 -0.10300000000000001 Q 0.308 -0.111 0.356 -0.312 Q 0.36 -0.33 0.36 -0.332 Q 0.36 -0.354 0.342 -0.383 Q 0.32 -0.42 0.281 -0.42 Q 0.232 -0.42 0.188 -0.359 Q 0.17 -0.334 0.157 -0.304 Q 0.129 -0.234 0.115 -0.14300000000000002 Q 0.111 -0.12 0.111 -0.105 Q 0.111 -0.04 0.146 -0.019 L 0.147 -0.018000000000000002 Q 0.159 -0.011 0.17500000000000002 -0.011 Z"/></g></g></g><path fill="rgb(219,97,20)" stroke="none" paint-order="stroke fill markers" d=" M 464.3490476401886 403.9254628782193 C 464.3490476401886 406.1346018775425 462.55818663951175 407.9254628782193 460.3490476401886 407.9254628782193 C 458.13990864086543 407.9254628782193 456.3490476401886 406.1346018775425 456.3490476401886 403.9254628782193 C 456.3490476401886 401.71632387889616 458.13990864086543 399.9254628782193 460.3490476401886 399.9254628782193 C 462.55818663951175 399.9254628782193 464.3490476401886 401.71632387889616 464.3490476401886 403.9254628782193 Z" fill-opacity="1"/><path fill="none" stroke="rgb(0,0,0)" paint-order="fill stroke markers" d=" M 464.3490476401886 403.9254628782193 C 464.3490476401886 406.1346018775425 462.55818663951175 407.9254628782193 460.3490476401886 407.9254628782193 C 458.13990864086543 407.9254628782193 456.3490476401886 406.1346018775425 456.3490476401886 403.9254628782193 C 456.3490476401886 401.71632387889616 458.13990864086543 399.9254628782193 460.3490476401886 399.9254628782193 C 462.55818663951175 399.9254628782193 464.3490476401886 401.71632387889616 464.3490476401886 403.9254628782193 Z" stroke-opacity="1" stroke-linecap="round" stroke-linejoin="round" stroke-miterlimit="10"/><g transform="scale(19,19)"><g transform="translate(24.842105263157894,21.492578947368422) scale(1.4,1.4)"><g transform="translate(0,0)"><path fill="rgb(219,97,20)" stroke="none" paint-order="stroke fill markers" d=" M 0.20600000000000002 -0.4 L 0.132 -0.105 Q 0.126 -0.08 0.126 -0.057 Q 0.126 -0.011 0.157 -0.011 Q 0.223 -0.011 0.273 -0.108 L 0.28700000000000003 -0.139 Q 0.293 -0.152 0.302 -0.153 Q 0.314 -0.153 0.314 -0.14300000000000002 Q 0.314 -0.13 0.28800000000000003 -0.08600000000000001 Q 0.23 0.011 0.155 0.011 Q 0.097 0.011 0.073 -0.037 Q 0.063 -0.057 0.063 -0.081 Q 0.063 -0.1 0.124 -0.34 L 0.139 -0.4 L 0.051000000000000004 -0.4 Q 0.026000000000000002 -0.4 0.024 -0.40800000000000003 L 0.023 -0.40800000000000003 L 0.023 -0.41200000000000003 Q 0.023 -0.429 0.039 -0.431 L 0.053 -0.431 L 0.147 -0.431 L 0.186 -0.59 Q 0.195 -0.625 0.226 -0.626 Q 0.252 -0.626 0.255 -0.599 Q 0.255 -0.593 0.214 -0.431 L 0.302 -0.431 Q 0.328 -0.431 0.33 -0.42 Q 0.33 -0.402 0.314 -0.4 L 0.313 -0.4 L 0.3 -0.4 L 0.20600000000000002 -0.4 Z"/></g></g></g></g></g></svg>