<svg version="1.1" xmlns="http://www.w3.org/2000/svg" xmlns:xlink="http://www.w3.org/1999/xlink" width="729" height="436"><defs><clipPath id="IrlnbpgJDbOM"><path fill="none" stroke="none" d=" M 0 0 L 729 0 L 729 436 L 0 436 L 0 0 Z"/></clipPath></defs><g transform="scale(1,1)" clip-path="url(#IrlnbpgJDbOM)"><g><rect fill="rgb(255,255,255)" stroke="none" x="0" y="0" width="729" height="436" fill-opacity="1"/><path fill="none" stroke="rgb(192,192,192)" paint-order="fill stroke markers" d=" M 62 0 L 62 436 M 62 0 L 62 436 M 147 0 L 147 436 M 232 0 L 232 436 M 316 0 L 316 436 M 401 0 L 401 436 M 570 0 L 570 436 M 655 0 L 655 436" stroke-opacity="1" stroke-linecap="round" stroke-linejoin="round" stroke-miterlimit="10" stroke-width="2"/><path fill="none" stroke="rgb(192,192,192)" paint-order="fill stroke markers" d="" stroke-opacity="0.23529411764705882" stroke-linecap="round" stroke-linejoin="round" stroke-miterlimit="10" stroke-width="2"/><path fill="none" stroke="rgb(192,192,192)" paint-order="fill stroke markers" d=" M 0 33 L 729 33 M 0 33 L 729 33 M 0 118 L 729 118 M 0 202 L 729 202 M 0 287 L 729 287" stroke-opacity="1" stroke-linecap="round" stroke-linejoin="round" stroke-miterlimit="10" stroke-width="2"/><path fill="none" stroke="rgb(192,192,192)" paint-order="fill stroke markers" d="" stroke-opacity="0.23529411764705882" stroke-linecap="round" stroke-linejoin="round" stroke-miterlimit="10" stroke-width="2"/><path fill="none" stroke="rgb(0,0,0)" paint-order="fill stroke markers" d=" M 486 -1 L 486 436" stroke-opacity="1" stroke-miterlimit="10" stroke-width="2"/><g transform="scale(19,19)"><g transform="translate(36.78947368421053,19.27294736842105)"><path fill="rgb(0,0,0)" stroke="none" paint-order="stroke fill markers" d=" M 0.419 -0.326 L 0.617 0 L 0.528 0 L 0.34 -0.317 L 0.182 -0.317 L 0.182 0 L 0.096 0 L 0.096 -0.6940000000000001 L 0.337 -0.6940000000000001 Q 0.443 -0.6940000000000001 0.516 -0.6385000000000001 Q 0.589 -0.583 0.589 -0.508 Q 0.589 -0.447 0.5425 -0.398 Q 0.496 -0.34900000000000003 0.419 -0.326 M 0.182 -0.378 L 0.326 -0.378 Q 0.41100000000000003 -0.378 0.4595 -0.41500000000000004 Q 0.508 -0.452 0.508 -0.508 Q 0.508 -0.5630000000000001 0.459 -0.6005 Q 0.41000000000000003 -0.638 0.326 -0.638 L 0.182 -0.638 L 0.182 -0.378 Z"/></g><g transform="translate(37.43547368421053,19.27294736842105)"><path fill="rgb(0,0,0)" stroke="none" paint-order="stroke fill markers" d=" M 0.41400000000000003 -0.219 L 0.105 -0.219 Q 0.107 -0.146 0.1495 -0.098 Q 0.192 -0.05 0.252 -0.05 Q 0.336 -0.05 0.404 -0.106 L 0.41000000000000003 -0.041 Q 0.338 0.011 0.251 0.011 Q 0.161 0.011 0.098 -0.058 Q 0.035 -0.127 0.035 -0.226 Q 0.035 -0.323 0.094 -0.392 Q 0.153 -0.461 0.23600000000000002 -0.461 Q 0.326 -0.461 0.374 -0.388 Q 0.41400000000000003 -0.326 0.41400000000000003 -0.219 M 0.11 -0.274 L 0.357 -0.274 Q 0.34800000000000003 -0.338 0.314 -0.369 Q 0.28 -0.4 0.23600000000000002 -0.4 Q 0.193 -0.4 0.1575 -0.365 Q 0.122 -0.33 0.11 -0.274 Z"/></g></g><path fill="none" stroke="rgb(0,0,0)" paint-order="fill stroke markers" d=" M 0 372 L 728 372" stroke-opacity="1" stroke-miterlimit="10" stroke-width="2"/><g transform="scale(19,19)"><g transform="translate(25.894736842105264,1.430842105263158)"><path fill="rgb(0,0,0)" stroke="none" paint-order="stroke fill markers" d=" M 0.183 -0.6940000000000001 L 0.183 0 L 0.094 0 L 0.094 -0.6940000000000001 L 0.183 -0.6940000000000001 Z"/></g><g transform="translate(26.172736842105262,1.430842105263158)"><path fill="rgb(0,0,0)" stroke="none" paint-order="stroke fill markers" d=" M 0.713 -0.298 L 0.713 0 L 0.635 0 L 0.635 -0.291 Q 0.635 -0.31 0.6325000000000001 -0.324 Q 0.63 -0.338 0.6215 -0.356 Q 0.613 -0.374 0.5915 -0.384 Q 0.5700000000000001 -0.394 0.537 -0.394 Q 0.486 -0.394 0.461 -0.34900000000000003 Q 0.436 -0.304 0.436 -0.245 L 0.436 0 L 0.358 0 L 0.358 -0.291 Q 0.358 -0.31 0.3555 -0.324 Q 0.353 -0.338 0.34450000000000003 -0.356 Q 0.336 -0.374 0.3145 -0.384 Q 0.293 -0.394 0.26 -0.394 Q 0.209 -0.394 0.184 -0.34900000000000003 Q 0.159 -0.304 0.159 -0.245 L 0.159 0 L 0.081 0 L 0.081 -0.45 L 0.153 -0.45 L 0.153 -0.378 Q 0.211 -0.455 0.299 -0.455 Q 0.399 -0.455 0.427 -0.373 Q 0.483 -0.455 0.5760000000000001 -0.455 Q 0.713 -0.455 0.713 -0.298 Z"/></g></g><path fill="rgb(219,97,20)" stroke="none" paint-order="stroke fill markers" d=" M 530.6588406827262 371.8076631024404 C 530.6588406827262 359.87292105966094 525.9177828662824 348.42699497920734 517.4786458361209 339.9878579490458 L 485.65884068272624 371.8076631024404 Z" fill-opacity="0.09803921568627451"/><path fill="none" stroke="rgb(219,97,20)" paint-order="fill stroke markers" d=" M 530.6588406827262 371.8076631024404 C 530.6588406827262 359.87292105966094 525.9177828662824 348.42699497920734 517.4786458361209 339.9878579490458 L 485.65884068272624 371.8076631024404 Z" stroke-opacity="0.6" stroke-linecap="round" stroke-linejoin="round" stroke-miterlimit="10" stroke-width="2"/><g transform="scale(19,19)"><g transform="translate(28.157894736842106,18.866336842105262) scale(1.4,1.4)"><g transform="translate(0,0)"><path fill="rgb(219,97,20)" stroke="none" paint-order="stroke fill markers" d=" M 0.455 -0.5 L 0.455 -0.5 Q 0.455 -0.34700000000000003 0.377 -0.19 Q 0.307 -0.05 0.222 -0.005 Q 0.191 0.011 0.162 0.011 Q 0.08 0.011 0.052000000000000005 -0.101 Q 0.042 -0.14300000000000002 0.042 -0.194 Q 0.042 -0.35100000000000003 0.122 -0.509 Q 0.192 -0.646 0.277 -0.6900000000000001 Q 0.307 -0.705 0.335 -0.705 Q 0.422 -0.705 0.447 -0.578 Q 0.455 -0.54 0.455 -0.5 M 0.148 -0.363 L 0.148 -0.363 L 0.357 -0.363 Q 0.389 -0.495 0.389 -0.562 Q 0.389 -0.675 0.342 -0.682 Q 0.338 -0.683 0.334 -0.683 Q 0.28300000000000003 -0.683 0.225 -0.578 Q 0.187 -0.511 0.149 -0.368 Q 0.149 -0.365 0.148 -0.363 M 0.34800000000000003 -0.331 L 0.14 -0.331 Q 0.108 -0.21 0.108 -0.133 Q 0.108 -0.013000000000000001 0.162 -0.011 Q 0.218 -0.011 0.278 -0.128 Q 0.317 -0.202 0.34800000000000003 -0.331 Z"/></g></g></g><path fill="rgb(21,101,192)" stroke="none" paint-order="stroke fill markers" d=" M 515.6588406827262 371.8076631024404 C 515.6588406827262 361.3631833922884 510.2267038029566 351.67045231938005 501.31794012171935 346.21874744038615 C 492.4091764404821 340.76704256139226 481.3062147896101 340.3411443205613 472.0060003654112 345.0943714432327 L 485.65884068272624 371.8076631024404 Z" fill-opacity="0.09803921568627451"/><path fill="none" stroke="rgb(21,101,192)" paint-order="fill stroke markers" d=" M 515.6588406827262 371.8076631024404 C 515.6588406827262 361.3631833922884 510.2267038029566 351.67045231938005 501.31794012171935 346.21874744038615 C 492.4091764404821 340.76704256139226 481.3062147896101 340.3411443205613 472.0060003654112 345.0943714432327 L 485.65884068272624 371.8076631024404 Z" stroke-opacity="0.6" stroke-linecap="round" stroke-linejoin="round" stroke-miterlimit="10" stroke-width="2"/><g transform="scale(19,19)"><g transform="translate(25.736842105263158,17.340021052631577) scale(1.4,1.4)"><g transform="translate(0,0)"><path fill="rgb(21,101,192)" stroke="none" paint-order="stroke fill markers" d=" M 0.437 -0.67 L 0.381 -0.443 Q 0.508 -0.434 0.555 -0.341 Q 0.5730000000000001 -0.304 0.5730000000000001 -0.262 Q 0.5730000000000001 -0.166 0.488 -0.084 Q 0.399 0.002 0.281 0.011 Q 0.274 0.012 0.267 0.012 L 0.229 0.161 Q 0.221 0.198 0.218 0.201 Q 0.214 0.20500000000000002 0.20800000000000002 0.20500000000000002 Q 0.196 0.20500000000000002 0.196 0.194 Q 0.196 0.192 0.218 0.106 L 0.24 0.016 Q 0.24 0.014 0.241 0.012 Q 0.126 0.005 0.075 -0.075 Q 0.049 -0.117 0.049 -0.169 Q 0.049 -0.267 0.136 -0.34900000000000003 Q 0.225 -0.434 0.343 -0.442 Q 0.34900000000000003 -0.443 0.355 -0.443 L 0.41300000000000003 -0.674 Q 0.422 -0.6930000000000001 0.428 -0.6940000000000001 Q 0.44 -0.6940000000000001 0.44 -0.684 L 0.437 -0.671 L 0.437 -0.67 M 0.246 -0.01 L 0.34900000000000003 -0.421 Q 0.233 -0.41100000000000003 0.164 -0.309 Q 0.114 -0.234 0.114 -0.148 Q 0.114 -0.05 0.198 -0.019 Q 0.221 -0.011 0.246 -0.01 M 0.375 -0.421 L 0.272 -0.01 Q 0.388 -0.019 0.458 -0.123 Q 0.508 -0.198 0.508 -0.28300000000000003 Q 0.508 -0.377 0.43 -0.40900000000000003 Q 0.405 -0.419 0.375 -0.421 Z"/></g></g></g><path fill="rgb(0,0,0)" stroke="none" paint-order="stroke fill markers" d=" M 505.65884068272624 371.8076631024404 C 505.65884068272624 361.9651155909231 498.49760750767615 353.58564872611413 488.7752856115189 352.0519608621807 C 479.0529637153616 350.51827299824726 469.6599716590829 356.28632516137424 466.63006358214597 365.6509072963009 L 485.65884068272624 371.8076631024404 Z" fill-opacity="0.09803921568627451"/><path fill="none" stroke="rgb(0,0,0)" paint-order="fill stroke markers" d=" M 505.65884068272624 371.8076631024404 C 505.65884068272624 361.9651155909231 498.49760750767615 353.58564872611413 488.7752856115189 352.0519608621807 C 479.0529637153616 350.51827299824726 469.6599716590829 356.28632516137424 466.63006358214597 365.6509072963009 L 485.65884068272624 371.8076631024404 Z" stroke-opacity="0.6" stroke-linecap="round" stroke-linejoin="round" stroke-miterlimit="10" stroke-width="2"/><path fill="none" stroke="rgb(219,97,20)" paint-order="fill stroke markers" d=" M 485.65884068272624 371.8076631024404 L 638.0158364724372 219.45066731272942" stroke-opacity="0.8" stroke-linecap="round" stroke-linejoin="round" stroke-miterlimit="10" stroke-width="4"/><path fill="rgb(219,97,20)" stroke="none" paint-order="stroke fill markers" fill-rule="evenodd" d=" M 654.9863992209143 202.4801045642523 L 642.2584771595565 223.6933079998487 L 633.7731957853179 215.20802662561013 Z" fill-opacity="0.8"/><path fill="none" stroke="rgb(21,101,192)" paint-order="fill stroke markers" d=" M 485.65884068272624 371.8076631024404 L 354.9668177083975 116.09426969100274" stroke-opacity="0.8" stroke-linecap="round" stroke-linejoin="round" stroke-miterlimit="10" stroke-width="4"/><path fill="rgb(21,101,192)" stroke="none" paint-order="stroke fill markers" fill-rule="evenodd" d=" M 344.04454545454547 94.72363636363656 L 360.3094760402391 113.36370162753973 L 349.62415937655595 118.82483775446575 Z" fill-opacity="0.8"/><path fill="none" stroke="rgb(0,0,0)" paint-order="fill stroke markers" d=" M 485.65884068272624 371.8076631024404 L 89.79505123643781 243.7260385591848" stroke-opacity="0.8" stroke-linecap="round" stroke-linejoin="round" stroke-miterlimit="10" stroke-width="4"/><path fill="rgb(0,0,0)" stroke="none" paint-order="stroke fill markers" fill-rule="evenodd" d=" M 66.9605187157415 236.33793159181738 L 91.64207797827966 238.0174054290107 L 87.94802449459597 249.43467168935888 Z" fill-opacity="0.8"/><g transform="scale(19,19)"><g transform="translate(34.578947368421055,10.411073684210525) scale(1.4,1.4)"><g transform="translate(0,0)"><path fill="rgb(219,97,20)" stroke="none" paint-order="stroke fill markers" d=" M 0.4 -0.405 L 0.134 -0.061 L 0.219 -0.061 Q 0.225 -0.061 0.23700000000000002 -0.0615 Q 0.249 -0.062 0.255 -0.062 L 0.402 -0.062 L 0.402 0 L 0.028 0 L 0.028 -0.041 L 0.295 -0.386 L 0.217 -0.386 Q 0.211 -0.386 0.199 -0.3855 Q 0.187 -0.385 0.181 -0.385 L 0.042 -0.385 L 0.042 -0.444 L 0.4 -0.444 L 0.4 -0.405 Z"/></g><g transform="translate(0.435,0.15) scale(0.7,0.7)"><path fill="rgb(219,97,20)" stroke="none" paint-order="stroke fill markers" d=" M 0.299 -0.678 L 0.299 -0.058 L 0.424 -0.058 L 0.424 0 L 0.095 0 L 0.095 -0.058 L 0.22 -0.058 L 0.22 -0.578 Q 0.169 -0.556 0.089 -0.554 L 0.089 -0.612 Q 0.22 -0.617 0.279 -0.678 L 0.299 -0.678 Z"/></g></g></g><g transform="scale(19,19)"><g transform="translate(17.526315789473685,4.4110736842105265) scale(1.4,1.4)"><g transform="translate(0,0)"><path fill="rgb(21,101,192)" stroke="none" paint-order="stroke fill markers" d=" M 0.4 -0.405 L 0.134 -0.061 L 0.219 -0.061 Q 0.225 -0.061 0.23700000000000002 -0.0615 Q 0.249 -0.062 0.255 -0.062 L 0.402 -0.062 L 0.402 0 L 0.028 0 L 0.028 -0.041 L 0.295 -0.386 L 0.217 -0.386 Q 0.211 -0.386 0.199 -0.3855 Q 0.187 -0.385 0.181 -0.385 L 0.042 -0.385 L 0.042 -0.444 L 0.4 -0.444 L 0.4 -0.405 Z"/></g><g transform="translate(0.435,0.15) scale(0.7,0.7)"><path fill="rgb(21,101,192)" stroke="none" paint-order="stroke fill markers" d=" M 0.17400000000000002 -0.188 L 0.251 -0.259 Q 0.281 -0.29 0.2955 -0.3055 Q 0.31 -0.321 0.33 -0.34900000000000003 Q 0.35000000000000003 -0.377 0.3585 -0.404 Q 0.367 -0.431 0.367 -0.461 Q 0.367 -0.523 0.328 -0.5685 Q 0.289 -0.614 0.222 -0.614 Q 0.161 -0.614 0.1315 -0.5730000000000001 Q 0.10200000000000001 -0.532 0.083 -0.459 Q 0.066 -0.484 0.061 -0.488 Q 0.06 -0.489 0.0545 -0.4965 Q 0.049 -0.504 0.042 -0.514 Q 0.088 -0.678 0.23600000000000002 -0.678 Q 0.332 -0.678 0.3905 -0.6155 Q 0.449 -0.553 0.449 -0.463 Q 0.449 -0.424 0.4315 -0.3865 Q 0.41400000000000003 -0.34900000000000003 0.398 -0.3305 Q 0.382 -0.312 0.35000000000000003 -0.28 Q 0.34 -0.271 0.3055 -0.241 Q 0.271 -0.211 0.261 -0.202 Q 0.254 -0.196 0.1975 -0.14100000000000001 Q 0.14100000000000001 -0.08600000000000001 0.122 -0.07 L 0.231 -0.07 Q 0.23700000000000002 -0.07 0.249 -0.07050000000000001 Q 0.261 -0.07100000000000001 0.267 -0.07100000000000001 L 0.449 -0.07100000000000001 L 0.449 0 L 0.05 0 L 0.05 -0.064 L 0.17400000000000002 -0.188 Z"/></g></g></g><g transform="scale(19,19)"><g transform="translate(2.0526315789473686,11.99002105263158) scale(1.4,1.4)"><g transform="translate(0,0)"><path fill="rgb(0,0,0)" stroke="none" paint-order="stroke fill markers" d=" M 0.4 -0.405 L 0.134 -0.061 L 0.219 -0.061 Q 0.225 -0.061 0.23700000000000002 -0.0615 Q 0.249 -0.062 0.255 -0.062 L 0.402 -0.062 L 0.402 0 L 0.028 0 L 0.028 -0.041 L 0.295 -0.386 L 0.217 -0.386 Q 0.211 -0.386 0.199 -0.3855 Q 0.187 -0.385 0.181 -0.385 L 0.042 -0.385 L 0.042 -0.444 L 0.4 -0.444 L 0.4 -0.405 Z"/></g><g transform="translate(0.435,0.15) scale(0.7,0.7)"><path fill="rgb(0,0,0)" stroke="none" paint-order="stroke fill markers" d=" M 0.299 -0.678 L 0.299 -0.058 L 0.424 -0.058 L 0.424 0 L 0.095 0 L 0.095 -0.058 L 0.22 -0.058 L 0.22 -0.578 Q 0.169 -0.556 0.089 -0.554 L 0.089 -0.612 Q 0.22 -0.617 0.279 -0.678 L 0.299 -0.678 Z"/></g><g transform="translate(1.007222222222222,0)"><path fill="rgb(0,0,0)" stroke="none" paint-order="stroke fill markers" d=" M 0.192 -0.25 Q 0.192 -0.217 0.162 -0.202 Q 0.151 -0.197 0.139 -0.197 Q 0.106 -0.197 0.091 -0.227 Q 0.08600000000000001 -0.23800000000000002 0.08600000000000001 -0.25 Q 0.08600000000000001 -0.28300000000000003 0.116 -0.298 Q 0.127 -0.303 0.139 -0.303 Q 0.17200000000000001 -0.303 0.187 -0.273 Q 0.192 -0.262 0.192 -0.25 Z"/></g><g transform="translate(1.5074444444444444,0)"><path fill="rgb(0,0,0)" stroke="none" paint-order="stroke fill markers" d=" M 0.4 -0.405 L 0.134 -0.061 L 0.219 -0.061 Q 0.225 -0.061 0.23700000000000002 -0.0615 Q 0.249 -0.062 0.255 -0.062 L 0.402 -0.062 L 0.402 0 L 0.028 0 L 0.028 -0.041 L 0.295 -0.386 L 0.217 -0.386 Q 0.211 -0.386 0.199 -0.3855 Q 0.187 -0.385 0.181 -0.385 L 0.042 -0.385 L 0.042 -0.444 L 0.4 -0.444 L 0.4 -0.405 Z"/></g><g transform="translate(1.9424444444444444,0.15) scale(0.7,0.7)"><path fill="rgb(0,0,0)" stroke="none" paint-order="stroke fill markers" d=" M 0.17400000000000002 -0.188 L 0.251 -0.259 Q 0.281 -0.29 0.2955 -0.3055 Q 0.31 -0.321 0.33 -0.34900000000000003 Q 0.35000000000000003 -0.377 0.3585 -0.404 Q 0.367 -0.431 0.367 -0.461 Q 0.367 -0.523 0.328 -0.5685 Q 0.289 -0.614 0.222 -0.614 Q 0.161 -0.614 0.1315 -0.5730000000000001 Q 0.10200000000000001 -0.532 0.083 -0.459 Q 0.066 -0.484 0.061 -0.488 Q 0.06 -0.489 0.0545 -0.4965 Q 0.049 -0.504 0.042 -0.514 Q 0.088 -0.678 0.23600000000000002 -0.678 Q 0.332 -0.678 0.3905 -0.6155 Q 0.449 -0.553 0.449 -0.463 Q 0.449 -0.424 0.4315 -0.3865 Q 0.41400000000000003 -0.34900000000000003 0.398 -0.3305 Q 0.382 -0.312 0.35000000000000003 -0.28 Q 0.34 -0.271 0.3055 -0.241 Q 0.271 -0.211 0.261 -0.202 Q 0.254 -0.196 0.1975 -0.14100000000000001 Q 0.14100000000000001 -0.08600000000000001 0.122 -0.07 L 0.231 -0.07 Q 0.23700000000000002 -0.07 0.249 -0.07050000000000001 Q 0.261 -0.07100000000000001 0.267 -0.07100000000000001 L 0.449 -0.07100000000000001 L 0.449 0 L 0.05 0 L 0.05 -0.064 L 0.17400000000000002 -0.188 Z"/></g></g></g><g transform="scale(19,19)"><g transform="translate(20.94736842105263,17.91896842105263) scale(1.4,1.4)"><g transform="translate(0,0)"><path fill="rgb(0,0,0)" stroke="none" paint-order="stroke fill markers" d=" M 0.455 -0.5 L 0.455 -0.5 Q 0.455 -0.34700000000000003 0.377 -0.19 Q 0.307 -0.05 0.222 -0.005 Q 0.191 0.011 0.162 0.011 Q 0.08 0.011 0.052000000000000005 -0.101 Q 0.042 -0.14300000000000002 0.042 -0.194 Q 0.042 -0.35100000000000003 0.122 -0.509 Q 0.192 -0.646 0.277 -0.6900000000000001 Q 0.307 -0.705 0.335 -0.705 Q 0.422 -0.705 0.447 -0.578 Q 0.455 -0.54 0.455 -0.5 M 0.148 -0.363 L 0.148 -0.363 L 0.357 -0.363 Q 0.389 -0.495 0.389 -0.562 Q 0.389 -0.675 0.342 -0.682 Q 0.338 -0.683 0.334 -0.683 Q 0.28300000000000003 -0.683 0.225 -0.578 Q 0.187 -0.511 0.149 -0.368 Q 0.149 -0.365 0.148 -0.363 M 0.34800000000000003 -0.331 L 0.14 -0.331 Q 0.108 -0.21 0.108 -0.133 Q 0.108 -0.013000000000000001 0.162 -0.011 Q 0.218 -0.011 0.278 -0.128 Q 0.317 -0.202 0.34800000000000003 -0.331 Z"/></g><g transform="translate(0.7192222222222222,0)"><path fill="rgb(0,0,0)" stroke="none" paint-order="stroke fill markers" d=" M 0.40900000000000003 -0.23 L 0.40900000000000003 0.05 Q 0.40900000000000003 0.083 0.389 0.083 Q 0.369 0.083 0.369 0.05 L 0.369 -0.23 L 0.089 -0.23 Q 0.056 -0.23 0.056 -0.25 Q 0.056 -0.27 0.089 -0.27 L 0.369 -0.27 L 0.369 -0.55 Q 0.369 -0.583 0.389 -0.583 Q 0.40900000000000003 -0.583 0.40900000000000003 -0.55 L 0.40900000000000003 -0.27 L 0.6880000000000001 -0.27 Q 0.721 -0.27 0.721 -0.25 Q 0.721 -0.23 0.6880000000000001 -0.23 L 0.40900000000000003 -0.23 Z"/></g><g transform="translate(1.7194444444444446,0)"><path fill="rgb(0,0,0)" stroke="none" paint-order="stroke fill markers" d=" M 0.437 -0.67 L 0.381 -0.443 Q 0.508 -0.434 0.555 -0.341 Q 0.5730000000000001 -0.304 0.5730000000000001 -0.262 Q 0.5730000000000001 -0.166 0.488 -0.084 Q 0.399 0.002 0.281 0.011 Q 0.274 0.012 0.267 0.012 L 0.229 0.161 Q 0.221 0.198 0.218 0.201 Q 0.214 0.20500000000000002 0.20800000000000002 0.20500000000000002 Q 0.196 0.20500000000000002 0.196 0.194 Q 0.196 0.192 0.218 0.106 L 0.24 0.016 Q 0.24 0.014 0.241 0.012 Q 0.126 0.005 0.075 -0.075 Q 0.049 -0.117 0.049 -0.169 Q 0.049 -0.267 0.136 -0.34900000000000003 Q 0.225 -0.434 0.343 -0.442 Q 0.34900000000000003 -0.443 0.355 -0.443 L 0.41300000000000003 -0.674 Q 0.422 -0.6930000000000001 0.428 -0.6940000000000001 Q 0.44 -0.6940000000000001 0.44 -0.684 L 0.437 -0.671 L 0.437 -0.67 M 0.246 -0.01 L 0.34900000000000003 -0.421 Q 0.233 -0.41100000000000003 0.164 -0.309 Q 0.114 -0.234 0.114 -0.148 Q 0.114 -0.05 0.198 -0.019 Q 0.221 -0.011 0.246 -0.01 M 0.375 -0.421 L 0.272 -0.01 Q 0.388 -0.019 0.458 -0.123 Q 0.508 -0.198 0.508 -0.28300000000000003 Q 0.508 -0.377 0.43 -0.40900000000000003 Q 0.405 -0.419 0.375 -0.421 Z"/></g></g></g><g transform="scale(19,19)"><g transform="translate(30.36842105263158,16.523684210526316) scale(1.4,1.4)"><g transform="translate(0,0)"><path fill="rgb(219,97,20)" stroke="none" paint-order="stroke fill markers" d=" M 0.159 -0.717 L 0.159 0.217 Q 0.159 0.249 0.139 0.25 Q 0.11900000000000001 0.25 0.11900000000000001 0.217 L 0.11900000000000001 -0.717 Q 0.11900000000000001 -0.749 0.139 -0.75 Q 0.159 -0.75 0.159 -0.717 Z"/></g><g transform="translate(0.278,0)"><path fill="rgb(219,97,20)" stroke="none" paint-order="stroke fill markers" d=" M 0.4 -0.405 L 0.134 -0.061 L 0.219 -0.061 Q 0.225 -0.061 0.23700000000000002 -0.0615 Q 0.249 -0.062 0.255 -0.062 L 0.402 -0.062 L 0.402 0 L 0.028 0 L 0.028 -0.041 L 0.295 -0.386 L 0.217 -0.386 Q 0.211 -0.386 0.199 -0.3855 Q 0.187 -0.385 0.181 -0.385 L 0.042 -0.385 L 0.042 -0.444 L 0.4 -0.444 L 0.4 -0.405 Z"/></g><g transform="translate(0.7130000000000001,0.15) scale(0.7,0.7)"><path fill="rgb(219,97,20)" stroke="none" paint-order="stroke fill markers" d=" M 0.299 -0.678 L 0.299 -0.058 L 0.424 -0.058 L 0.424 0 L 0.095 0 L 0.095 -0.058 L 0.22 -0.058 L 0.22 -0.578 Q 0.169 -0.556 0.089 -0.554 L 0.089 -0.612 Q 0.22 -0.617 0.279 -0.678 L 0.299 -0.678 Z"/></g><g transform="translate(1.063,0)"><path fill="rgb(219,97,20)" stroke="none" paint-order="stroke fill markers" d=" M 0.159 -0.717 L 0.159 0.217 Q 0.159 0.249 0.139 0.25 Q 0.11900000000000001 0.25 0.11900000000000001 0.217 L 0.11900000000000001 -0.717 Q 0.11900000000000001 -0.749 0.139 -0.75 Q 0.159 -0.75 0.159 -0.717 Z"/></g></g></g><g transform="scale(19,19)"><g transform="translate(19.36842105263158,12.523684210526316) scale(1.4,1.4)"><g transform="translate(0,0)"><path fill="rgb(21,101,192)" stroke="none" paint-order="stroke fill markers" d=" M 0.159 -0.717 L 0.159 0.217 Q 0.159 0.249 0.139 0.25 Q 0.11900000000000001 0.25 0.11900000000000001 0.217 L 0.11900000000000001 -0.717 Q 0.11900000000000001 -0.749 0.139 -0.75 Q 0.159 -0.75 0.159 -0.717 Z"/></g><g transform="translate(0.278,0)"><path fill="rgb(21,101,192)" stroke="none" paint-order="stroke fill markers" d=" M 0.4 -0.405 L 0.134 -0.061 L 0.219 -0.061 Q 0.225 -0.061 0.23700000000000002 -0.0615 Q 0.249 -0.062 0.255 -0.062 L 0.402 -0.062 L 0.402 0 L 0.028 0 L 0.028 -0.041 L 0.295 -0.386 L 0.217 -0.386 Q 0.211 -0.386 0.199 -0.3855 Q 0.187 -0.385 0.181 -0.385 L 0.042 -0.385 L 0.042 -0.444 L 0.4 -0.444 L 0.4 -0.405 Z"/></g><g transform="translate(0.7130000000000001,0.15) scale(0.7,0.7)"><path fill="rgb(21,101,192)" stroke="none" paint-order="stroke fill markers" d=" M 0.17400000000000002 -0.188 L 0.251 -0.259 Q 0.281 -0.29 0.2955 -0.3055 Q 0.31 -0.321 0.33 -0.34900000000000003 Q 0.35000000000000003 -0.377 0.3585 -0.404 Q 0.367 -0.431 0.367 -0.461 Q 0.367 -0.523 0.328 -0.5685 Q 0.289 -0.614 0.222 -0.614 Q 0.161 -0.614 0.1315 -0.5730000000000001 Q 0.10200000000000001 -0.532 0.083 -0.459 Q 0.066 -0.484 0.061 -0.488 Q 0.06 -0.489 0.0545 -0.4965 Q 0.049 -0.504 0.042 -0.514 Q 0.088 -0.678 0.23600000000000002 -0.678 Q 0.332 -0.678 0.3905 -0.6155 Q 0.449 -0.553 0.449 -0.463 Q 0.449 -0.424 0.4315 -0.3865 Q 0.41400000000000003 -0.34900000000000003 0.398 -0.3305 Q 0.382 -0.312 0.35000000000000003 -0.28 Q 0.34 -0.271 0.3055 -0.241 Q 0.271 -0.211 0.261 -0.202 Q 0.254 -0.196 0.1975 -0.14100000000000001 Q 0.14100000000000001 -0.08600000000000001 0.122 -0.07 L 0.231 -0.07 Q 0.23700000000000002 -0.07 0.249 -0.07050000000000001 Q 0.261 -0.07100000000000001 0.267 -0.07100000000000001 L 0.449 -0.07100000000000001 L 0.449 0 L 0.05 0 L 0.05 -0.064 L 0.17400000000000002 -0.188 Z"/></g><g transform="translate(1.063,0)"><path fill="rgb(21,101,192)" stroke="none" paint-order="stroke fill markers" d=" M 0.159 -0.717 L 0.159 0.217 Q 0.159 0.249 0.139 0.25 Q 0.11900000000000001 0.25 0.11900000000000001 0.217 L 0.11900000000000001 -0.717 Q 0.11900000000000001 -0.749 0.139 -0.75 Q 0.159 -0.75 0.159 -0.717 Z"/></g></g></g><g transform="scale(19,19)"><g transform="translate(11,17.523684210526316) scale(1.4,1.4)"><g transform="translate(0,0)"><path fill="rgb(0,0,0)" stroke="none" paint-order="stroke fill markers" d=" M 0.159 -0.717 L 0.159 0.217 Q 0.159 0.249 0.139 0.25 Q 0.11900000000000001 0.25 0.11900000000000001 0.217 L 0.11900000000000001 -0.717 Q 0.11900000000000001 -0.749 0.139 -0.75 Q 0.159 -0.75 0.159 -0.717 Z"/></g><g transform="translate(0.278,0)"><path fill="rgb(0,0,0)" stroke="none" paint-order="stroke fill markers" d=" M 0.4 -0.405 L 0.134 -0.061 L 0.219 -0.061 Q 0.225 -0.061 0.23700000000000002 -0.0615 Q 0.249 -0.062 0.255 -0.062 L 0.402 -0.062 L 0.402 0 L 0.028 0 L 0.028 -0.041 L 0.295 -0.386 L 0.217 -0.386 Q 0.211 -0.386 0.199 -0.3855 Q 0.187 -0.385 0.181 -0.385 L 0.042 -0.385 L 0.042 -0.444 L 0.4 -0.444 L 0.4 -0.405 Z"/></g><g transform="translate(0.7130000000000001,0.15) scale(0.7,0.7)"><path fill="rgb(0,0,0)" stroke="none" paint-order="stroke fill markers" d=" M 0.299 -0.678 L 0.299 -0.058 L 0.424 -0.058 L 0.424 0 L 0.095 0 L 0.095 -0.058 L 0.22 -0.058 L 0.22 -0.578 Q 0.169 -0.556 0.089 -0.554 L 0.089 -0.612 Q 0.22 -0.617 0.279 -0.678 L 0.299 -0.678 Z"/></g><g transform="translate(1.063,0)"><path fill="rgb(0,0,0)" stroke="none" paint-order="stroke fill markers" d=" M 0.159 -0.717 L 0.159 0.217 Q 0.159 0.249 0.139 0.25 Q 0.11900000000000001 0.25 0.11900000000000001 0.217 L 0.11900000000000001 -0.717 Q 0.11900000000000001 -0.749 0.139 -0.75 Q 0.159 -0.75 0.159 -0.717 Z"/></g><g transform="translate(1.563222222222222,0)"><path fill="rgb(0,0,0)" stroke="none" paint-order="stroke fill markers" d=" M 0.192 -0.25 Q 0.192 -0.217 0.162 -0.202 Q 0.151 -0.197 0.139 -0.197 Q 0.106 -0.197 0.091 -0.227 Q 0.08600000000000001 -0.23800000000000002 0.08600000000000001 -0.25 Q 0.08600000000000001 -0.28300000000000003 0.116 -0.298 Q 0.127 -0.303 0.139 -0.303 Q 0.17200000000000001 -0.303 0.187 -0.273 Q 0.192 -0.262 0.192 -0.25 Z"/></g><g transform="translate(2.0634444444444444,0)"><path fill="rgb(0,0,0)" stroke="none" paint-order="stroke fill markers" d=" M 0.159 -0.717 L 0.159 0.217 Q 0.159 0.249 0.139 0.25 Q 0.11900000000000001 0.25 0.11900000000000001 0.217 L 0.11900000000000001 -0.717 Q 0.11900000000000001 -0.749 0.139 -0.75 Q 0.159 -0.75 0.159 -0.717 Z"/></g><g transform="translate(2.3414444444444444,0)"><path fill="rgb(0,0,0)" stroke="none" paint-order="stroke fill markers" d=" M 0.4 -0.405 L 0.134 -0.061 L 0.219 -0.061 Q 0.225 -0.061 0.23700000000000002 -0.0615 Q 0.249 -0.062 0.255 -0.062 L 0.402 -0.062 L 0.402 0 L 0.028 0 L 0.028 -0.041 L 0.295 -0.386 L 0.217 -0.386 Q 0.211 -0.386 0.199 -0.3855 Q 0.187 -0.385 0.181 -0.385 L 0.042 -0.385 L 0.042 -0.444 L 0.4 -0.444 L 0.4 -0.405 Z"/></g><g transform="translate(2.7764444444444445,0.15) scale(0.7,0.7)"><path fill="rgb(0,0,0)" stroke="none" paint-order="stroke fill markers" d=" M 0.17400000000000002 -0.188 L 0.251 -0.259 Q 0.281 -0.29 0.2955 -0.3055 Q 0.31 -0.321 0.33 -0.34900000000000003 Q 0.35000000000000003 -0.377 0.3585 -0.404 Q 0.367 -0.431 0.367 -0.461 Q 0.367 -0.523 0.328 -0.5685 Q 0.289 -0.614 0.222 -0.614 Q 0.161 -0.614 0.1315 -0.5730000000000001 Q 0.10200000000000001 -0.532 0.083 -0.459 Q 0.066 -0.484 0.061 -0.488 Q 0.06 -0.489 0.0545 -0.4965 Q 0.049 -0.504 0.042 -0.514 Q 0.088 -0.678 0.23600000000000002 -0.678 Q 0.332 -0.678 0.3905 -0.6155 Q 0.449 -0.553 0.449 -0.463 Q 0.449 -0.424 0.4315 -0.3865 Q 0.41400000000000003 -0.34900000000000003 0.398 -0.3305 Q 0.382 -0.312 0.35000000000000003 -0.28 Q 0.34 -0.271 0.3055 -0.241 Q 0.271 -0.211 0.261 -0.202 Q 0.254 -0.196 0.1975 -0.14100000000000001 Q 0.14100000000000001 -0.08600000000000001 0.122 -0.07 L 0.231 -0.07 Q 0.23700000000000002 -0.07 0.249 -0.07050000000000001 Q 0.261 -0.07100000000000001 0.267 -0.07100000000000001 L 0.449 -0.07100000000000001 L 0.449 0 L 0.05 0 L 0.05 -0.064 L 0.17400000000000002 -0.188 Z"/></g><g transform="translate(3.126444444444444,0)"><path fill="rgb(0,0,0)" stroke="none" paint-order="stroke fill markers" d=" M 0.159 -0.717 L 0.159 0.217 Q 0.159 0.249 0.139 0.25 Q 0.11900000000000001 0.25 0.11900000000000001 0.217 L 0.11900000000000001 -0.717 Q 0.11900000000000001 -0.749 0.139 -0.75 Q 0.159 -0.75 0.159 -0.717 Z"/></g></g></g></g></g></svg>