<svg version="1.1" xmlns="http://www.w3.org/2000/svg" xmlns:xlink="http://www.w3.org/1999/xlink" width="433" height="365"><defs><clipPath id="pkigvwDsCVgD"><path fill="none" stroke="none" d=" M 0 0 L 433 0 L 433 365 L 0 365 L 0 0 Z"/></clipPath></defs><g transform="scale(1,1)" clip-path="url(#pkigvwDsCVgD)"><g><rect fill="rgb(255,255,255)" stroke="none" x="0" y="0" width="433" height="365" fill-opacity="1"/><path fill="none" stroke="rgb(97,97,97)" paint-order="fill stroke markers" d=" M 371.8464095612727 183.2336762860874 C 371.8464095612727 261.93273435732976 308.04821762632923 325.73092629227324 229.349159555087 325.73092629227324 C 150.6501014838447 325.73092629227324 86.85190954890132 261.93273435732976 86.85190954890132 183.2336762860874 C 86.85190954890132 104.53461821484504 150.6501014838447 40.736426279901565 229.349159555087 40.736426279901565 C 308.04821762632923 40.736426279901565 371.8464095612727 104.53461821484504 371.8464095612727 183.2336762860874 Z" stroke-opacity="0.8" stroke-linecap="round" stroke-linejoin="round" stroke-miterlimit="10" stroke-width="4"/><path fill="none" stroke="rgb(0,0,0)" paint-order="fill stroke markers" d=" M 95.9173942165531 133.21937575146222 L 122.11613288446532 63.324487434823276" stroke-opacity="0.8" stroke-linecap="round" stroke-linejoin="round" stroke-miterlimit="10" stroke-width="4"/><path fill="rgb(0,0,0)" stroke="none" paint-order="stroke fill markers" fill-rule="evenodd" d=" M 130.53975658793254 40.85133537058482 L 127.73442090052492 65.43039336069009 L 116.4978448684057 61.21858150895647 Z" fill-opacity="0.8"/><g transform="scale(19,19)"><g transform="translate(6.578947368421052,1.8321263157894736) scale(1.4,1.4)"><g transform="translate(0,0)"><path fill="rgb(0,0,0)" stroke="none" paint-order="stroke fill markers" d=" M 0.506 -0.376 L 0.34 -0.02 Q 0.329 0.004 0.303 0.004 Q 0.277 0.004 0.265 -0.021 L 0.09 -0.397 L 0.026000000000000002 -0.397 L 0.026000000000000002 -0.444 Q 0.036000000000000004 -0.444 0.08 -0.4425 Q 0.124 -0.441 0.14 -0.441 Q 0.214 -0.441 0.264 -0.444 L 0.264 -0.397 L 0.21 -0.397 L 0.337 -0.124 L 0.453 -0.374 Q 0.458 -0.384 0.458 -0.386 Q 0.458 -0.397 0.41000000000000003 -0.397 L 0.41000000000000003 -0.444 Q 0.47300000000000003 -0.441 0.501 -0.441 Q 0.542 -0.441 0.58 -0.444 L 0.58 -0.397 Q 0.536 -0.397 0.5235 -0.3925 Q 0.511 -0.388 0.506 -0.376 Z"/></g></g></g><path fill="none" stroke="rgb(21,101,192)" paint-order="fill stroke markers" d=" M 95.9173942165531 133.21937575146222 L 131.75048044419057 146.65071077970856" stroke-opacity="0.8" stroke-linecap="round" stroke-linejoin="round" stroke-miterlimit="10" stroke-width="4"/><path fill="rgb(21,101,192)" stroke="none" paint-order="stroke fill markers" fill-rule="evenodd" d=" M 154.223632508429 155.07433448317582 L 129.64457451832376 152.26899879576817 L 133.85638637005738 141.03242276364895 Z" fill-opacity="0.8"/><g transform="scale(19,19)"><g transform="translate(8.421052631578947,8.591978947368421) scale(1.4,1.4)"><g transform="translate(0,0)"><path fill="rgb(21,101,192)" stroke="none" paint-order="stroke fill markers" d=" M 0.644 -0.68 L 0.675 -0.439 L 0.628 -0.439 Q 0.623 -0.47900000000000004 0.617 -0.5045000000000001 Q 0.611 -0.53 0.598 -0.557 Q 0.585 -0.584 0.5645 -0.599 Q 0.544 -0.614 0.51 -0.6235 Q 0.47600000000000003 -0.633 0.429 -0.633 L 0.289 -0.633 L 0.289 -0.364 L 0.339 -0.364 Q 0.406 -0.364 0.425 -0.391 Q 0.444 -0.418 0.444 -0.481 L 0.491 -0.481 L 0.491 -0.2 L 0.444 -0.2 Q 0.444 -0.263 0.425 -0.29 Q 0.406 -0.317 0.339 -0.317 L 0.289 -0.317 L 0.289 -0.047 L 0.424 -0.047 L 0.424 0 Q 0.38 -0.003 0.222 -0.003 Q 0.077 -0.003 0.039 0 L 0.039 -0.047 L 0.147 -0.047 L 0.147 -0.633 L 0.039 -0.633 L 0.039 -0.68 L 0.644 -0.68 Z"/></g><g transform="translate(0.724,0.15) scale(0.7,0.7)"><path fill="rgb(21,101,192)" stroke="none" paint-order="stroke fill markers" d=" M 0.396 -0.38 L 0.396 -0.38 Q 0.368 -0.41600000000000004 0.31 -0.42 Q 0.245 -0.42 0.192 -0.354 Q 0.179 -0.338 0.169 -0.32 Q 0.129 -0.247 0.117 -0.148 Q 0.115 -0.132 0.115 -0.12 Q 0.115 -0.038 0.171 -0.017 Q 0.185 -0.011 0.20500000000000002 -0.011 Q 0.295 -0.011 0.367 -0.07100000000000001 Q 0.388 -0.088 0.405 -0.11 Q 0.41200000000000003 -0.12 0.418 -0.12 Q 0.427 -0.12 0.43 -0.107 Q 0.43 -0.096 0.396 -0.064 Q 0.313 0.011 0.203 0.011 Q 0.108 0.011 0.065 -0.065 Q 0.041 -0.106 0.041 -0.158 Q 0.041 -0.26 0.11900000000000001 -0.34700000000000003 Q 0.196 -0.433 0.291 -0.441 Q 0.3 -0.442 0.309 -0.442 Q 0.386 -0.442 0.41600000000000004 -0.395 Q 0.427 -0.377 0.427 -0.356 Q 0.427 -0.312 0.392 -0.296 Q 0.382 -0.292 0.371 -0.292 Q 0.341 -0.292 0.335 -0.318 Q 0.334 -0.322 0.334 -0.327 Q 0.334 -0.34900000000000003 0.352 -0.366 Q 0.366 -0.38 0.396 -0.38 Z"/></g></g></g><path fill="rgb(0,0,0)" stroke="none" paint-order="stroke fill markers" d=" M 100.9173942165531 133.21937575146222 C 100.9173942165531 135.9807995006162 98.67881796570707 138.21937575146222 95.9173942165531 138.21937575146222 C 93.15597046739914 138.21937575146222 90.9173942165531 135.9807995006162 90.9173942165531 133.21937575146222 C 90.9173942165531 130.45795200230825 93.15597046739914 128.21937575146222 95.9173942165531 128.21937575146222 C 98.67881796570707 128.21937575146222 100.9173942165531 130.45795200230825 100.9173942165531 133.21937575146222 Z" fill-opacity="1"/><path fill="none" stroke="rgb(0,0,0)" paint-order="fill stroke markers" d=" M 100.9173942165531 133.21937575146222 C 100.9173942165531 135.9807995006162 98.67881796570707 138.21937575146222 95.9173942165531 138.21937575146222 C 93.15597046739914 138.21937575146222 90.9173942165531 135.9807995006162 90.9173942165531 133.21937575146222 C 90.9173942165531 130.45795200230825 93.15597046739914 128.21937575146222 95.9173942165531 128.21937575146222 C 98.67881796570707 128.21937575146222 100.9173942165531 130.45795200230825 100.9173942165531 133.21937575146222 Z" stroke-opacity="1" stroke-linecap="round" stroke-linejoin="round" stroke-miterlimit="10"/><g transform="scale(19,19)"><g transform="translate(3.210526315789474,7.129715789473684) scale(1.4,1.4)"><g transform="translate(0,0)"><path fill="rgb(0,0,0)" stroke="none" paint-order="stroke fill markers" d=" M 0.088 -0.059000000000000004 L 0.088 -0.059000000000000004 L 0.146 -0.29 Q 0.162 -0.354 0.162 -0.374 Q 0.162 -0.42 0.131 -0.42 Q 0.09 -0.42 0.064 -0.325 Q 0.061 -0.314 0.058 -0.301 Q 0.047 -0.279 0.041 -0.278 Q 0.029 -0.278 0.029 -0.28800000000000003 Q 0.029 -0.304 0.048 -0.356 Q 0.054 -0.373 0.06 -0.385 Q 0.084 -0.434 0.12 -0.441 Q 0.127 -0.442 0.134 -0.442 Q 0.188 -0.442 0.214 -0.397 Q 0.224 -0.378 0.226 -0.355 Q 0.29 -0.442 0.382 -0.442 Q 0.433 -0.442 0.464 -0.41600000000000004 Q 0.492 -0.392 0.496 -0.34500000000000003 Q 0.5640000000000001 -0.442 0.659 -0.442 Q 0.748 -0.442 0.769 -0.373 L 0.769 -0.372 Q 0.774 -0.355 0.774 -0.335 Q 0.774 -0.28200000000000003 0.713 -0.115 Q 0.6950000000000001 -0.07100000000000001 0.6950000000000001 -0.044 Q 0.6950000000000001 -0.011 0.719 -0.011 Q 0.781 -0.011 0.8170000000000001 -0.121 L 0.8210000000000001 -0.135 Q 0.8260000000000001 -0.151 0.8310000000000001 -0.152 L 0.8310000000000001 -0.153 L 0.836 -0.153 Q 0.848 -0.153 0.848 -0.14300000000000002 Q 0.848 -0.126 0.8270000000000001 -0.08 Q 0.784 0.011 0.717 0.011 Q 0.666 0.011 0.644 -0.032 Q 0.635 -0.05 0.635 -0.07100000000000001 Q 0.635 -0.091 0.648 -0.126 Q 0.71 -0.29 0.71 -0.35000000000000003 Q 0.71 -0.42 0.656 -0.42 Q 0.5680000000000001 -0.42 0.51 -0.325 Q 0.494 -0.3 0.491 -0.28700000000000003 Q 0.488 -0.274 0.431 -0.046 Q 0.42 -0.003 0.406 0.006 L 0.405 0.007 L 0.404 0.007 Q 0.397 0.011 0.386 0.011 Q 0.361 0.006 0.357 -0.016 L 0.37 -0.075 L 0.39 -0.151 L 0.418 -0.267 Q 0.433 -0.323 0.433 -0.35000000000000003 Q 0.433 -0.42 0.379 -0.42 Q 0.289 -0.42 0.228 -0.32 Q 0.221 -0.309 0.216 -0.298 L 0.203 -0.248 Q 0.198 -0.225 0.186 -0.181 L 0.164 -0.091 Q 0.147 -0.022 0.145 -0.017 Q 0.136 0.009000000000000001 0.108 0.011 Q 0.083 0.006 0.079 -0.016 Q 0.079 -0.014 0.088 -0.059000000000000004 Z"/></g></g></g></g></g></svg>