<svg version="1.1" xmlns="http://www.w3.org/2000/svg" xmlns:xlink="http://www.w3.org/1999/xlink" width="737" height="396"><defs><clipPath id="iWZTTEqSUfbq"><path fill="none" stroke="none" d=" M 0 0 L 737 0 L 737 396 L 0 396 L 0 0 Z"/></clipPath></defs><g transform="scale(1,1)" clip-path="url(#iWZTTEqSUfbq)"><g><rect fill="rgb(255,255,255)" stroke="none" x="0" y="0" width="737" height="396" fill-opacity="1"/><path fill="none" stroke="rgb(0,100,0)" paint-order="fill stroke markers" d=" M 327.98620953058986 178.18227121091883 C 327.98620953058986 255.86181627591208 265.0144961844243 318.8335296220779 187.33495111943128 318.8335296220779 C 109.65540605443829 318.8335296220779 46.6836927082727 255.86181627591208 46.6836927082727 178.18227121091883 C 46.6836927082727 100.50272614592556 109.65540605443829 37.531012799759736 187.33495111943128 37.531012799759736 C 265.0144961844243 37.531012799759736 327.98620953058986 100.50272614592556 327.98620953058986 178.18227121091883 Z" stroke-opacity="1" stroke-linecap="round" stroke-linejoin="round" stroke-miterlimit="10" stroke-width="2.5"/><path fill="none" stroke="rgb(0,100,0)" paint-order="fill stroke markers" d=" M 222.49776572222092 88.54545846317555 C 195.03389918474966 88.54545846317555 172.77003641974508 112.93429817036031 172.77003641974508 143.01945660812905 C 172.77003641974508 173.1046150458978 195.03389918474966 197.49345475308255 222.49776572222092 197.49345475308255 C 249.9616322596922 197.49345475308255 272.2254950246968 173.1046150458978 272.2254950246968 143.01945660812905 C 272.2254950246968 112.93429817036031 249.9616322596922 88.54545846317555 222.49776572222092 88.54545846317555 Z" stroke-opacity="1" stroke-linecap="round" stroke-linejoin="round" stroke-miterlimit="10" stroke-width="2.5"/><path fill="rgb(0,100,0)" stroke="none" paint-order="stroke fill markers" d=" M 222.49776572222092 88.54545846317555 C 249.9616322596922 88.54545846317555 272.2254950246968 112.93429817036031 272.2254950246968 143.01945660812905 C 272.2254950246968 173.1046150458978 249.9616322596922 197.49345475308255 222.49776572222092 197.49345475308255 C 195.03389918474966 197.49345475308255 172.77003641974508 173.1046150458978 172.77003641974508 143.01945660812905 C 172.77003641974508 112.93429817036031 195.03389918474966 88.54545846317555 222.49776572222092 88.54545846317555 Z M 187.33495111943128 37.531012799759736 C 109.65540605443829 37.531012799759736 46.6836927082727 100.50272614592556 46.6836927082727 178.18227121091883 C 46.6836927082727 255.86181627591208 109.65540605443829 318.8335296220779 187.33495111943128 318.8335296220779 C 265.0144961844243 318.8335296220779 327.98620953058986 255.86181627591208 327.98620953058986 178.18227121091883 C 327.98620953058986 100.50272614592556 265.0144961844243 37.531012799759736 187.33495111943128 37.531012799759736 Z" fill-opacity="0.24705882352941178"/><path fill="none" stroke="rgb(21,101,192)" paint-order="fill stroke markers" d=" M 609.288726352907 125.43804930673417 C 609.288726352907 164.2778218392308 577.8028696798242 195.76367851231373 538.9630971473277 195.76367851231373 C 500.1233246148313 195.76367851231373 468.63746794174847 164.2778218392308 468.63746794174847 125.43804930673417 C 468.63746794174847 86.59827677423755 500.1233246148313 55.112420101154626 538.9630971473277 55.112420101154626 C 577.8028696798242 55.112420101154626 609.288726352907 86.59827677423755 609.288726352907 125.43804930673417 Z" stroke-opacity="1" stroke-linecap="round" stroke-linejoin="round" stroke-miterlimit="10" stroke-width="2.5"/><path fill="none" stroke="rgb(21,101,192)" paint-order="fill stroke markers" d=" M 659.0164556553829 266.08930771789323 C 659.0164556553829 293.55317425536464 636.7525928903783 315.81703702036924 609.288726352907 315.81703702036924 C 581.8248598154357 315.81703702036924 559.5609970504312 293.55317425536464 559.5609970504312 266.08930771789323 C 559.5609970504312 238.62544118042186 581.8248598154357 216.36157841541723 609.288726352907 216.36157841541723 C 636.7525928903783 216.36157841541723 659.0164556553829 238.62544118042186 659.0164556553829 266.08930771789323 Z" stroke-opacity="1" stroke-linecap="round" stroke-linejoin="round" stroke-miterlimit="10" stroke-width="2.5"/><path fill="rgb(21,101,192)" stroke="none" paint-order="stroke fill markers" d=" M 538.9630971473277 55.112420101154626 C 500.1233246148313 55.112420101154626 468.63746794174847 86.59827677423755 468.63746794174847 125.43804930673417 C 468.63746794174847 164.2778218392308 500.1233246148313 195.76367851231373 538.9630971473277 195.76367851231373 C 577.8028696798242 195.76367851231373 609.288726352907 164.2778218392308 609.288726352907 125.43804930673417 C 609.288726352907 86.59827677423755 577.8028696798242 55.112420101154626 538.9630971473277 55.112420101154626 Z M 609.288726352907 216.36157841541723 C 581.8248598154357 216.36157841541723 559.5609970504312 238.62544118042186 559.5609970504312 266.08930771789323 C 559.5609970504312 293.55317425536464 581.8248598154357 315.81703702036924 609.288726352907 315.81703702036924 C 636.7525928903783 315.81703702036924 659.0164556553829 293.55317425536464 659.0164556553829 266.08930771789323 C 659.0164556553829 238.62544118042186 636.7525928903783 216.36157841541723 609.288726352907 216.36157841541723 Z" fill-opacity="0.24705882352941178"/><path fill="none" stroke="rgb(97,97,97)" paint-order="fill stroke markers" d=" M 182.48760330578494 71.77685950413239 L 132.90082644628086 165.1652892561985" stroke-opacity="0.8" stroke-linecap="round" stroke-linejoin="round" stroke-miterlimit="10" stroke-width="2.5"/><path fill="none" stroke="rgb(97,97,97)" paint-order="fill stroke markers" d=" M 132.90082644628086 165.1652892561985 L 199.84297520661138 237.06611570247946" stroke-opacity="0.8" stroke-linecap="round" stroke-linejoin="round" stroke-miterlimit="10" stroke-width="2.5"/><path fill="none" stroke="rgb(97,97,97)" paint-order="fill stroke markers" d=" M 199.84297520661138 237.06611570247946 L 270.0909090909088 229.62809917355384" stroke-opacity="0.8" stroke-linecap="round" stroke-linejoin="round" stroke-miterlimit="10" stroke-width="2.5"/><path fill="none" stroke="rgb(97,97,97)" paint-order="fill stroke markers" d=" M 541.2451611570242 128.8750785123967 L 600.0909090909088 280.4545454545455" stroke-opacity="0.8" stroke-linejoin="round" stroke-miterlimit="10" stroke-width="2.5" stroke-dasharray="10.5,8"/><path fill="rgb(0,0,0)" stroke="none" paint-order="stroke fill markers" d=" M 187.48760330578494 71.77685950413239 C 187.48760330578494 74.53828325328635 185.24902705493892 76.77685950413239 182.48760330578494 76.77685950413239 C 179.72617955663097 76.77685950413239 177.48760330578494 74.53828325328635 177.48760330578494 71.77685950413239 C 177.48760330578494 69.01543575497843 179.72617955663097 66.77685950413239 182.48760330578494 66.77685950413239 C 185.24902705493892 66.77685950413239 187.48760330578494 69.01543575497843 187.48760330578494 71.77685950413239 Z" fill-opacity="1"/><path fill="none" stroke="rgb(0,0,0)" paint-order="fill stroke markers" d=" M 187.48760330578494 71.77685950413239 C 187.48760330578494 74.53828325328635 185.24902705493892 76.77685950413239 182.48760330578494 76.77685950413239 C 179.72617955663097 76.77685950413239 177.48760330578494 74.53828325328635 177.48760330578494 71.77685950413239 C 177.48760330578494 69.01543575497843 179.72617955663097 66.77685950413239 182.48760330578494 66.77685950413239 C 185.24902705493892 66.77685950413239 187.48760330578494 69.01543575497843 187.48760330578494 71.77685950413239 Z" stroke-opacity="1" stroke-linecap="round" stroke-linejoin="round" stroke-miterlimit="10"/><path fill="rgb(0,0,0)" stroke="none" paint-order="stroke fill markers" d=" M 275.0909090909088 229.62809917355384 C 275.0909090909088 232.3895229227078 272.85233284006273 234.62809917355384 270.0909090909088 234.62809917355384 C 267.32948534175483 234.62809917355384 265.0909090909088 232.3895229227078 265.0909090909088 229.62809917355384 C 265.0909090909088 226.86667542439986 267.32948534175483 224.62809917355384 270.0909090909088 224.62809917355384 C 272.85233284006273 224.62809917355384 275.0909090909088 226.86667542439986 275.0909090909088 229.62809917355384 Z" fill-opacity="1"/><path fill="none" stroke="rgb(0,0,0)" paint-order="fill stroke markers" d=" M 275.0909090909088 229.62809917355384 C 275.0909090909088 232.3895229227078 272.85233284006273 234.62809917355384 270.0909090909088 234.62809917355384 C 267.32948534175483 234.62809917355384 265.0909090909088 232.3895229227078 265.0909090909088 229.62809917355384 C 265.0909090909088 226.86667542439986 267.32948534175483 224.62809917355384 270.0909090909088 224.62809917355384 C 272.85233284006273 224.62809917355384 275.0909090909088 226.86667542439986 275.0909090909088 229.62809917355384 Z" stroke-opacity="1" stroke-linecap="round" stroke-linejoin="round" stroke-miterlimit="10"/><path fill="rgb(0,0,0)" stroke="none" paint-order="stroke fill markers" d=" M 546.2451611570242 128.8750785123967 C 546.2451611570242 131.63650226155067 544.0065849061782 133.8750785123967 541.2451611570242 133.8750785123967 C 538.4837374078702 133.8750785123967 536.2451611570242 131.63650226155067 536.2451611570242 128.8750785123967 C 536.2451611570242 126.11365476324274 538.4837374078702 123.8750785123967 541.2451611570242 123.8750785123967 C 544.0065849061782 123.8750785123967 546.2451611570242 126.11365476324274 546.2451611570242 128.8750785123967 Z" fill-opacity="1"/><path fill="none" stroke="rgb(0,0,0)" paint-order="fill stroke markers" d=" M 546.2451611570242 128.8750785123967 C 546.2451611570242 131.63650226155067 544.0065849061782 133.8750785123967 541.2451611570242 133.8750785123967 C 538.4837374078702 133.8750785123967 536.2451611570242 131.63650226155067 536.2451611570242 128.8750785123967 C 536.2451611570242 126.11365476324274 538.4837374078702 123.8750785123967 541.2451611570242 123.8750785123967 C 544.0065849061782 123.8750785123967 546.2451611570242 126.11365476324274 546.2451611570242 128.8750785123967 Z" stroke-opacity="1" stroke-linecap="round" stroke-linejoin="round" stroke-miterlimit="10"/><path fill="rgb(0,0,0)" stroke="none" paint-order="stroke fill markers" d=" M 605.0909090909088 280.4545454545455 C 605.0909090909088 283.21596920369944 602.8523328400628 285.4545454545455 600.0909090909088 285.4545454545455 C 597.3294853417548 285.4545454545455 595.0909090909088 283.21596920369944 595.0909090909088 280.4545454545455 C 595.0909090909088 277.69312170539155 597.3294853417548 275.4545454545455 600.0909090909088 275.4545454545455 C 602.8523328400628 275.4545454545455 605.0909090909088 277.69312170539155 605.0909090909088 280.4545454545455 Z" fill-opacity="1"/><path fill="none" stroke="rgb(0,0,0)" paint-order="fill stroke markers" d=" M 605.0909090909088 280.4545454545455 C 605.0909090909088 283.21596920369944 602.8523328400628 285.4545454545455 600.0909090909088 285.4545454545455 C 597.3294853417548 285.4545454545455 595.0909090909088 283.21596920369944 595.0909090909088 280.4545454545455 C 595.0909090909088 277.69312170539155 597.3294853417548 275.4545454545455 600.0909090909088 275.4545454545455 C 602.8523328400628 275.4545454545455 605.0909090909088 277.69312170539155 605.0909090909088 280.4545454545455 Z" stroke-opacity="1" stroke-linecap="round" stroke-linejoin="round" stroke-miterlimit="10"/><text fill="rgb(0,0,0)" stroke="none" font-family="geogebra-sans-serif, sans-serif" font-size="22px" font-style="normal" font-weight="normal" text-decoration="normal" x="157" y="355" text-anchor="start" dominant-baseline="alphabetic" fill-opacity="1">连通集</text><text fill="rgb(0,0,0)" stroke="none" font-family="geogebra-sans-serif, sans-serif" font-size="22px" font-style="normal" font-weight="normal" text-decoration="normal" x="559" y="346" text-anchor="start" dominant-baseline="alphabetic" fill-opacity="1">非连通集</text></g></g></svg>