<svg version="1.1" xmlns="http://www.w3.org/2000/svg" xmlns:xlink="http://www.w3.org/1999/xlink" width="657" height="442"><defs><clipPath id="TlcLoNlelpGH"><path fill="none" stroke="none" d=" M 0 0 L 657 0 L 657 442 L 0 442 L 0 0 Z"/></clipPath></defs><g transform="scale(1,1)" clip-path="url(#TlcLoNlelpGH)"><g><rect fill="rgb(255,255,255)" stroke="none" x="0" y="0" width="657" height="442" fill-opacity="1"/><path fill="none" stroke="rgb(0,0,0)" paint-order="fill stroke markers" d=" M 253.5 2.5 L 253.5 442.5" stroke-opacity="1" stroke-miterlimit="10"/><path fill="none" stroke="rgb(0,0,0)" paint-order="fill stroke markers" d=" M 253.5 1.5 L 249.5 5.5" stroke-opacity="1" stroke-miterlimit="10"/><path fill="none" stroke="rgb(0,0,0)" paint-order="fill stroke markers" d=" M 253.5 1.5 L 257.5 5.5" stroke-opacity="1" stroke-miterlimit="10"/><g transform="scale(19,19)"><g transform="translate(33,12.483473684210526)"><path fill="rgb(0,0,0)" stroke="none" paint-order="stroke fill markers" d=" M 0.419 -0.326 L 0.617 0 L 0.528 0 L 0.34 -0.317 L 0.182 -0.317 L 0.182 0 L 0.096 0 L 0.096 -0.6940000000000001 L 0.337 -0.6940000000000001 Q 0.443 -0.6940000000000001 0.516 -0.6385000000000001 Q 0.589 -0.583 0.589 -0.508 Q 0.589 -0.447 0.5425 -0.398 Q 0.496 -0.34900000000000003 0.419 -0.326 M 0.182 -0.378 L 0.326 -0.378 Q 0.41100000000000003 -0.378 0.4595 -0.41500000000000004 Q 0.508 -0.452 0.508 -0.508 Q 0.508 -0.5630000000000001 0.459 -0.6005 Q 0.41000000000000003 -0.638 0.326 -0.638 L 0.182 -0.638 L 0.182 -0.378 Z"/></g><g transform="translate(33.646,12.483473684210526)"><path fill="rgb(0,0,0)" stroke="none" paint-order="stroke fill markers" d=" M 0.41400000000000003 -0.219 L 0.105 -0.219 Q 0.107 -0.146 0.1495 -0.098 Q 0.192 -0.05 0.252 -0.05 Q 0.336 -0.05 0.404 -0.106 L 0.41000000000000003 -0.041 Q 0.338 0.011 0.251 0.011 Q 0.161 0.011 0.098 -0.058 Q 0.035 -0.127 0.035 -0.226 Q 0.035 -0.323 0.094 -0.392 Q 0.153 -0.461 0.23600000000000002 -0.461 Q 0.326 -0.461 0.374 -0.388 Q 0.41400000000000003 -0.326 0.41400000000000003 -0.219 M 0.11 -0.274 L 0.357 -0.274 Q 0.34800000000000003 -0.338 0.314 -0.369 Q 0.28 -0.4 0.23600000000000002 -0.4 Q 0.193 -0.4 0.1575 -0.365 Q 0.122 -0.33 0.11 -0.274 Z"/></g></g><path fill="none" stroke="rgb(0,0,0)" paint-order="fill stroke markers" d=" M 0.5 242.5 L 655.5 242.5" stroke-opacity="1" stroke-miterlimit="10"/><path fill="none" stroke="rgb(0,0,0)" paint-order="fill stroke markers" d=" M 656.5 242.5 L 652.5 238.5" stroke-opacity="1" stroke-miterlimit="10"/><path fill="none" stroke="rgb(0,0,0)" paint-order="fill stroke markers" d=" M 656.5 242.5 L 652.5 246.5" stroke-opacity="1" stroke-miterlimit="10"/><path fill="none" stroke="rgb(0,0,0)" paint-order="fill stroke markers" d=" M 14.5 242.5 L 14.5 245.5" stroke-opacity="1" stroke-miterlimit="10"/><path fill="none" stroke="rgb(0,0,0)" paint-order="fill stroke markers" d=" M 93.5 242.5 L 93.5 245.5" stroke-opacity="1" stroke-miterlimit="10"/><path fill="none" stroke="rgb(0,0,0)" paint-order="fill stroke markers" d=" M 173.5 242.5 L 173.5 245.5" stroke-opacity="1" stroke-miterlimit="10"/><path fill="none" stroke="rgb(0,0,0)" paint-order="fill stroke markers" d=" M 253.5 242.5 L 253.5 245.5" stroke-opacity="1" stroke-miterlimit="10"/><path fill="none" stroke="rgb(0,0,0)" paint-order="fill stroke markers" d=" M 332.5 242.5 L 332.5 245.5" stroke-opacity="1" stroke-miterlimit="10"/><path fill="none" stroke="rgb(0,0,0)" paint-order="fill stroke markers" d=" M 412.5 242.5 L 412.5 245.5" stroke-opacity="1" stroke-miterlimit="10"/><path fill="none" stroke="rgb(0,0,0)" paint-order="fill stroke markers" d=" M 492.5 242.5 L 492.5 245.5" stroke-opacity="1" stroke-miterlimit="10"/><path fill="none" stroke="rgb(0,0,0)" paint-order="fill stroke markers" d=" M 571.5 242.5 L 571.5 245.5" stroke-opacity="1" stroke-miterlimit="10"/><g transform="scale(19,19)"><g transform="translate(13.68421052631579,1.430842105263158)"><path fill="rgb(0,0,0)" stroke="none" paint-order="stroke fill markers" d=" M 0.183 -0.6940000000000001 L 0.183 0 L 0.094 0 L 0.094 -0.6940000000000001 L 0.183 -0.6940000000000001 Z"/></g><g transform="translate(13.96221052631579,1.430842105263158)"><path fill="rgb(0,0,0)" stroke="none" paint-order="stroke fill markers" d=" M 0.713 -0.298 L 0.713 0 L 0.635 0 L 0.635 -0.291 Q 0.635 -0.31 0.6325000000000001 -0.324 Q 0.63 -0.338 0.6215 -0.356 Q 0.613 -0.374 0.5915 -0.384 Q 0.5700000000000001 -0.394 0.537 -0.394 Q 0.486 -0.394 0.461 -0.34900000000000003 Q 0.436 -0.304 0.436 -0.245 L 0.436 0 L 0.358 0 L 0.358 -0.291 Q 0.358 -0.31 0.3555 -0.324 Q 0.353 -0.338 0.34450000000000003 -0.356 Q 0.336 -0.374 0.3145 -0.384 Q 0.293 -0.394 0.26 -0.394 Q 0.209 -0.394 0.184 -0.34900000000000003 Q 0.159 -0.304 0.159 -0.245 L 0.159 0 L 0.081 0 L 0.081 -0.45 L 0.153 -0.45 L 0.153 -0.378 Q 0.211 -0.455 0.299 -0.455 Q 0.399 -0.455 0.427 -0.373 Q 0.483 -0.455 0.5760000000000001 -0.455 Q 0.713 -0.455 0.713 -0.298 Z"/></g></g><path fill="none" stroke="rgb(0,0,0)" paint-order="fill stroke markers" d=" M 250.5 401.5 L 253.5 401.5" stroke-opacity="1" stroke-miterlimit="10"/><path fill="none" stroke="rgb(0,0,0)" paint-order="fill stroke markers" d=" M 250.5 321.5 L 253.5 321.5" stroke-opacity="1" stroke-miterlimit="10"/><path fill="none" stroke="rgb(0,0,0)" paint-order="fill stroke markers" d=" M 250.5 162.5 L 253.5 162.5" stroke-opacity="1" stroke-miterlimit="10"/><path fill="none" stroke="rgb(0,0,0)" paint-order="fill stroke markers" d=" M 250.5 82.5 L 253.5 82.5" stroke-opacity="1" stroke-miterlimit="10"/><path fill="none" stroke="rgb(97,97,97)" paint-order="fill stroke markers" d=" M 412.5967832951654 242.21719816025634 C 412.5967832951654 330.22571990252874 341.2517799414867 401.57072325620743 253.24325819921438 401.57072325620743 C 165.23473645694202 401.57072325620743 93.88973310326338 330.22571990252874 93.88973310326338 242.21719816025634 C 93.88973310326338 154.20867641798395 165.23473645694202 82.86367306430523 253.24325819921438 82.86367306430523 C 341.2517799414867 82.86367306430523 412.5967832951654 154.20867641798395 412.5967832951654 242.21719816025634 Z" stroke-opacity="0.8" stroke-linecap="round" stroke-linejoin="round" stroke-miterlimit="10" stroke-width="3"/><path fill="rgb(0,0,0)" stroke="none" paint-order="stroke fill markers" d=" M 283.2432581992144 242.21719816025634 C 283.2432581992144 236.29444859577538 281.49011737496016 230.50421779191518 278.2047670293497 225.57619227349946 L 253.24325819921438 242.21719816025634 Z" fill-opacity="0.09803921568627451"/><path fill="none" stroke="rgb(0,0,0)" paint-order="fill stroke markers" d=" M 283.2432581992144 242.21719816025634 C 283.2432581992144 236.29444859577538 281.49011737496016 230.50421779191518 278.2047670293497 225.57619227349946 L 253.24325819921438 242.21719816025634 Z" stroke-opacity="0.6" stroke-linecap="round" stroke-linejoin="round" stroke-miterlimit="10" stroke-width="2"/><g transform="scale(19,19)"><g transform="translate(15.526315789473685,12.51701052631579) scale(1.2,1.2)"><g transform="translate(0,0)"><path fill="rgb(0,0,0)" stroke="none" paint-order="stroke fill markers" d=" M 0.455 -0.5 L 0.455 -0.5 Q 0.455 -0.34700000000000003 0.377 -0.19 Q 0.307 -0.05 0.222 -0.005 Q 0.191 0.011 0.162 0.011 Q 0.08 0.011 0.052000000000000005 -0.101 Q 0.042 -0.14300000000000002 0.042 -0.194 Q 0.042 -0.35100000000000003 0.122 -0.509 Q 0.192 -0.646 0.277 -0.6900000000000001 Q 0.307 -0.705 0.335 -0.705 Q 0.422 -0.705 0.447 -0.578 Q 0.455 -0.54 0.455 -0.5 M 0.148 -0.363 L 0.148 -0.363 L 0.357 -0.363 Q 0.389 -0.495 0.389 -0.562 Q 0.389 -0.675 0.342 -0.682 Q 0.338 -0.683 0.334 -0.683 Q 0.28300000000000003 -0.683 0.225 -0.578 Q 0.187 -0.511 0.149 -0.368 Q 0.149 -0.365 0.148 -0.363 M 0.34800000000000003 -0.331 L 0.14 -0.331 Q 0.108 -0.21 0.108 -0.133 Q 0.108 -0.013000000000000001 0.162 -0.011 Q 0.218 -0.011 0.278 -0.128 Q 0.317 -0.202 0.34800000000000003 -0.331 Z"/></g></g></g><path fill="rgb(219,97,20)" stroke="none" paint-order="stroke fill markers" d=" M 278.2047670293497 258.85820404701326 C 281.49011737496016 253.9301785285975 283.2432581992144 248.1399477247373 283.2432581992144 242.21719816025634 L 253.24325819921438 242.21719816025634 Z" fill-opacity="0.09803921568627451"/><path fill="none" stroke="rgb(219,97,20)" paint-order="fill stroke markers" d=" M 278.2047670293497 258.85820404701326 C 281.49011737496016 253.9301785285975 283.2432581992144 248.1399477247373 283.2432581992144 242.21719816025634 L 253.24325819921438 242.21719816025634 Z" stroke-opacity="0.6" stroke-linecap="round" stroke-linejoin="round" stroke-miterlimit="10" stroke-width="2"/><g transform="scale(19,19)"><g transform="translate(15.157894736842104,13.780168421052633) scale(1.2,1.2)"><g transform="translate(0,0)"><path fill="rgb(219,97,20)" stroke="none" paint-order="stroke fill markers" d=" M 0.661 -0.23 L 0.116 -0.23 Q 0.084 -0.23 0.083 -0.25 Q 0.083 -0.27 0.116 -0.27 L 0.661 -0.27 Q 0.6930000000000001 -0.27 0.6940000000000001 -0.25 Q 0.6940000000000001 -0.23 0.661 -0.23 Z"/></g><g transform="translate(0.778,0)"><path fill="rgb(219,97,20)" stroke="none" paint-order="stroke fill markers" d=" M 0.455 -0.5 L 0.455 -0.5 Q 0.455 -0.34700000000000003 0.377 -0.19 Q 0.307 -0.05 0.222 -0.005 Q 0.191 0.011 0.162 0.011 Q 0.08 0.011 0.052000000000000005 -0.101 Q 0.042 -0.14300000000000002 0.042 -0.194 Q 0.042 -0.35100000000000003 0.122 -0.509 Q 0.192 -0.646 0.277 -0.6900000000000001 Q 0.307 -0.705 0.335 -0.705 Q 0.422 -0.705 0.447 -0.578 Q 0.455 -0.54 0.455 -0.5 M 0.148 -0.363 L 0.148 -0.363 L 0.357 -0.363 Q 0.389 -0.495 0.389 -0.562 Q 0.389 -0.675 0.342 -0.682 Q 0.338 -0.683 0.334 -0.683 Q 0.28300000000000003 -0.683 0.225 -0.578 Q 0.187 -0.511 0.149 -0.368 Q 0.149 -0.365 0.148 -0.363 M 0.34800000000000003 -0.331 L 0.14 -0.331 Q 0.108 -0.21 0.108 -0.133 Q 0.108 -0.013000000000000001 0.162 -0.011 Q 0.218 -0.011 0.278 -0.128 Q 0.317 -0.202 0.34800000000000003 -0.331 Z"/></g></g></g><path fill="none" stroke="rgb(219,97,20)" paint-order="fill stroke markers" d=" M 253.24325819921438 242.21719816025634 L 314.5330755438109 283.0770763899874" stroke-opacity="0.8" stroke-linecap="round" stroke-linejoin="round" stroke-miterlimit="10" stroke-width="4"/><path fill="none" stroke="rgb(0,0,0)" paint-order="fill stroke markers" d=" M 253.24325819921438 242.21719816025634 L 540.0796033719262 50.99296804511502" stroke-opacity="0.8" stroke-linecap="round" stroke-linejoin="round" stroke-miterlimit="10" stroke-width="4"/><path fill="rgb(0,0,0)" stroke="none" paint-order="stroke fill markers" d=" M 545.0796033719262 50.99296804511502 C 545.0796033719262 53.75439179426898 542.8410271210802 55.99296804511502 540.0796033719262 55.99296804511502 C 537.3181796227722 55.99296804511502 535.0796033719262 53.75439179426898 535.0796033719262 50.99296804511502 C 535.0796033719262 48.23154429596105 537.3181796227722 45.99296804511502 540.0796033719262 45.99296804511502 C 542.8410271210802 45.99296804511502 545.0796033719262 48.23154429596105 545.0796033719262 50.99296804511502 Z" fill-opacity="1"/><path fill="none" stroke="rgb(0,0,0)" paint-order="fill stroke markers" d=" M 545.0796033719262 50.99296804511502 C 545.0796033719262 53.75439179426898 542.8410271210802 55.99296804511502 540.0796033719262 55.99296804511502 C 537.3181796227722 55.99296804511502 535.0796033719262 53.75439179426898 535.0796033719262 50.99296804511502 C 535.0796033719262 48.23154429596105 537.3181796227722 45.99296804511502 540.0796033719262 45.99296804511502 C 542.8410271210802 45.99296804511502 545.0796033719262 48.23154429596105 545.0796033719262 50.99296804511502 Z" stroke-opacity="1" stroke-linecap="round" stroke-linejoin="round" stroke-miterlimit="10"/><g transform="scale(19,19)"><g transform="translate(28.210526315789473,1.8139263157894736) scale(1.4,1.4)"><g transform="translate(0,0)"><path fill="rgb(0,0,0)" stroke="none" paint-order="stroke fill markers" d=" M 0.133 -0.083 L 0.133 -0.083 Q 0.14200000000000002 -0.08600000000000001 0.16 -0.08600000000000001 Q 0.186 -0.08600000000000001 0.23 -0.069 Q 0.269 -0.056 0.289 -0.056 Q 0.342 -0.056 0.38 -0.094 Q 0.4 -0.113 0.40900000000000003 -0.14 Q 0.41500000000000004 -0.153 0.423 -0.153 Q 0.435 -0.153 0.435 -0.14300000000000002 Q 0.435 -0.117 0.403 -0.069 Q 0.34900000000000003 0.011 0.278 0.011 Q 0.244 0.011 0.214 -0.026000000000000002 Q 0.186 -0.059000000000000004 0.169 -0.063 Q 0.164 -0.064 0.156 -0.064 Q 0.112 -0.064 0.07100000000000001 -0.002 Q 0.064 0.011 0.055 0.011 Q 0.043000000000000003 0.011 0.043000000000000003 0.001 Q 0.043000000000000003 -0.011 0.089 -0.067 Q 0.115 -0.099 0.146 -0.13 L 0.23600000000000002 -0.214 Q 0.335 -0.298 0.375 -0.34500000000000003 Q 0.339 -0.34500000000000003 0.298 -0.36 Q 0.255 -0.375 0.23500000000000001 -0.375 Q 0.177 -0.375 0.155 -0.337 Q 0.152 -0.333 0.15 -0.328 Q 0.146 -0.317 0.137 -0.317 Q 0.125 -0.317 0.125 -0.328 Q 0.125 -0.35000000000000003 0.154 -0.388 Q 0.194 -0.442 0.246 -0.442 Q 0.279 -0.442 0.308 -0.40700000000000003 L 0.309 -0.406 Q 0.311 -0.403 0.315 -0.399 Q 0.339 -0.372 0.354 -0.368 Q 0.36 -0.367 0.366 -0.367 Q 0.4 -0.367 0.437 -0.425 L 0.441 -0.431 Q 0.447 -0.442 0.456 -0.442 Q 0.467 -0.442 0.467 -0.432 Q 0.467 -0.42 0.425 -0.368 Q 0.395 -0.331 0.35000000000000003 -0.28700000000000003 Q 0.34400000000000003 -0.281 0.255 -0.2 L 0.252 -0.197 Q 0.187 -0.14100000000000001 0.133 -0.083 Z"/></g></g></g><path fill="rgb(0,0,0)" stroke="none" paint-order="stroke fill markers" d=" M 319.5330755438109 201.35731993052528 C 319.5330755438109 204.11874367967926 317.2944992929649 206.35731993052528 314.5330755438109 206.35731993052528 C 311.771651794657 206.35731993052528 309.5330755438109 204.11874367967926 309.5330755438109 201.35731993052528 C 309.5330755438109 198.5958961813713 311.771651794657 196.35731993052528 314.5330755438109 196.35731993052528 C 317.2944992929649 196.35731993052528 319.5330755438109 198.5958961813713 319.5330755438109 201.35731993052528 Z" fill-opacity="1"/><path fill="none" stroke="rgb(0,0,0)" paint-order="fill stroke markers" d=" M 319.5330755438109 201.35731993052528 C 319.5330755438109 204.11874367967926 317.2944992929649 206.35731993052528 314.5330755438109 206.35731993052528 C 311.771651794657 206.35731993052528 309.5330755438109 204.11874367967926 309.5330755438109 201.35731993052528 C 309.5330755438109 198.5958961813713 311.771651794657 196.35731993052528 314.5330755438109 196.35731993052528 C 317.2944992929649 196.35731993052528 319.5330755438109 198.5958961813713 319.5330755438109 201.35731993052528 Z" stroke-opacity="1" stroke-linecap="round" stroke-linejoin="round" stroke-miterlimit="10"/><g transform="scale(19,19)"><g transform="translate(14.842105263157896,8.497879621052633) scale(1.4,1.4)"><g transform="translate(0.5290306744397368,-0.6765079999999999)"><path fill="rgb(0,0,0)" stroke="none" paint-order="stroke fill markers" d=" M 0.133 -0.083 L 0.133 -0.083 Q 0.14200000000000002 -0.08600000000000001 0.16 -0.08600000000000001 Q 0.186 -0.08600000000000001 0.23 -0.069 Q 0.269 -0.056 0.289 -0.056 Q 0.342 -0.056 0.38 -0.094 Q 0.4 -0.113 0.40900000000000003 -0.14 Q 0.41500000000000004 -0.153 0.423 -0.153 Q 0.435 -0.153 0.435 -0.14300000000000002 Q 0.435 -0.117 0.403 -0.069 Q 0.34900000000000003 0.011 0.278 0.011 Q 0.244 0.011 0.214 -0.026000000000000002 Q 0.186 -0.059000000000000004 0.169 -0.063 Q 0.164 -0.064 0.156 -0.064 Q 0.112 -0.064 0.07100000000000001 -0.002 Q 0.064 0.011 0.055 0.011 Q 0.043000000000000003 0.011 0.043000000000000003 0.001 Q 0.043000000000000003 -0.011 0.089 -0.067 Q 0.115 -0.099 0.146 -0.13 L 0.23600000000000002 -0.214 Q 0.335 -0.298 0.375 -0.34500000000000003 Q 0.339 -0.34500000000000003 0.298 -0.36 Q 0.255 -0.375 0.23500000000000001 -0.375 Q 0.177 -0.375 0.155 -0.337 Q 0.152 -0.333 0.15 -0.328 Q 0.146 -0.317 0.137 -0.317 Q 0.125 -0.317 0.125 -0.328 Q 0.125 -0.35000000000000003 0.154 -0.388 Q 0.194 -0.442 0.246 -0.442 Q 0.279 -0.442 0.308 -0.40700000000000003 L 0.309 -0.406 Q 0.311 -0.403 0.315 -0.399 Q 0.339 -0.372 0.354 -0.368 Q 0.36 -0.367 0.366 -0.367 Q 0.4 -0.367 0.437 -0.425 L 0.441 -0.431 Q 0.447 -0.442 0.456 -0.442 Q 0.467 -0.442 0.467 -0.432 Q 0.467 -0.42 0.425 -0.368 Q 0.395 -0.331 0.35000000000000003 -0.28700000000000003 Q 0.34400000000000003 -0.281 0.255 -0.2 L 0.252 -0.197 Q 0.187 -0.14100000000000001 0.133 -0.083 Z"/></g><rect fill="rgb(0,0,0)" stroke="none" x="0.0629219374673684" y="-0.2699994999999999" width="1.4412174739447368" height="0.039999"/><g transform="translate(0.0629219374673684,0.8205209)"><path fill="rgb(0,0,0)" stroke="none" paint-order="stroke fill markers" d=" M 0.159 -0.717 L 0.159 0.217 Q 0.159 0.249 0.139 0.25 Q 0.11900000000000001 0.25 0.11900000000000001 0.217 L 0.11900000000000001 -0.717 Q 0.11900000000000001 -0.749 0.139 -0.75 Q 0.159 -0.75 0.159 -0.717 Z"/></g><g transform="translate(0.34092193746736843,0.8205209)"><path fill="rgb(0,0,0)" stroke="none" paint-order="stroke fill markers" d=" M 0.133 -0.083 L 0.133 -0.083 Q 0.14200000000000002 -0.08600000000000001 0.16 -0.08600000000000001 Q 0.186 -0.08600000000000001 0.23 -0.069 Q 0.269 -0.056 0.289 -0.056 Q 0.342 -0.056 0.38 -0.094 Q 0.4 -0.113 0.40900000000000003 -0.14 Q 0.41500000000000004 -0.153 0.423 -0.153 Q 0.435 -0.153 0.435 -0.14300000000000002 Q 0.435 -0.117 0.403 -0.069 Q 0.34900000000000003 0.011 0.278 0.011 Q 0.244 0.011 0.214 -0.026000000000000002 Q 0.186 -0.059000000000000004 0.169 -0.063 Q 0.164 -0.064 0.156 -0.064 Q 0.112 -0.064 0.07100000000000001 -0.002 Q 0.064 0.011 0.055 0.011 Q 0.043000000000000003 0.011 0.043000000000000003 0.001 Q 0.043000000000000003 -0.011 0.089 -0.067 Q 0.115 -0.099 0.146 -0.13 L 0.23600000000000002 -0.214 Q 0.335 -0.298 0.375 -0.34500000000000003 Q 0.339 -0.34500000000000003 0.298 -0.36 Q 0.255 -0.375 0.23500000000000001 -0.375 Q 0.177 -0.375 0.155 -0.337 Q 0.152 -0.333 0.15 -0.328 Q 0.146 -0.317 0.137 -0.317 Q 0.125 -0.317 0.125 -0.328 Q 0.125 -0.35000000000000003 0.154 -0.388 Q 0.194 -0.442 0.246 -0.442 Q 0.279 -0.442 0.308 -0.40700000000000003 L 0.309 -0.406 Q 0.311 -0.403 0.315 -0.399 Q 0.339 -0.372 0.354 -0.368 Q 0.36 -0.367 0.366 -0.367 Q 0.4 -0.367 0.437 -0.425 L 0.441 -0.431 Q 0.447 -0.442 0.456 -0.442 Q 0.467 -0.442 0.467 -0.432 Q 0.467 -0.42 0.425 -0.368 Q 0.395 -0.331 0.35000000000000003 -0.28700000000000003 Q 0.34400000000000003 -0.281 0.255 -0.2 L 0.252 -0.197 Q 0.187 -0.14100000000000001 0.133 -0.083 Z"/></g><g transform="translate(0.8499219374673684,0.8205209)"><path fill="rgb(0,0,0)" stroke="none" paint-order="stroke fill markers" d=" M 0.159 -0.717 L 0.159 0.217 Q 0.159 0.249 0.139 0.25 Q 0.11900000000000001 0.25 0.11900000000000001 0.217 L 0.11900000000000001 -0.717 Q 0.11900000000000001 -0.749 0.139 -0.75 Q 0.159 -0.75 0.159 -0.717 Z"/></g><g transform="translate(1.1279219374673684,0.3407965) scale(0.7,0.7)"><path fill="rgb(0,0,0)" stroke="none" paint-order="stroke fill markers" d=" M 0.449 -0.17400000000000002 L 0.449 -0.17400000000000002 L 0.421 0 L 0.05 0 Q 0.05 -0.025 0.056 -0.032 L 0.061 -0.037 L 0.253 -0.251 Q 0.358 -0.369 0.358 -0.47200000000000003 Q 0.358 -0.561 0.304 -0.607 L 0.303 -0.608 L 0.302 -0.608 Q 0.27 -0.635 0.224 -0.635 Q 0.152 -0.635 0.109 -0.5730000000000001 Q 0.097 -0.555 0.089 -0.533 Q 0.092 -0.534 0.10200000000000001 -0.534 Q 0.14200000000000002 -0.534 0.153 -0.498 L 0.153 -0.497 Q 0.155 -0.49 0.155 -0.482 Q 0.155 -0.442 0.117 -0.431 Q 0.109 -0.429 0.10300000000000001 -0.429 Q 0.066 -0.429 0.054 -0.46 Q 0.05 -0.47100000000000003 0.05 -0.485 Q 0.05 -0.562 0.109 -0.617 Q 0.162 -0.666 0.23700000000000002 -0.666 Q 0.34700000000000003 -0.666 0.40800000000000003 -0.592 Q 0.443 -0.549 0.448 -0.49 Q 0.449 -0.481 0.449 -0.47200000000000003 Q 0.449 -0.399 0.394 -0.333 Q 0.365 -0.299 0.304 -0.243 L 0.243 -0.189 L 0.233 -0.18 L 0.127 -0.077 L 0.307 -0.077 Q 0.395 -0.077 0.402 -0.085 Q 0.41200000000000003 -0.099 0.424 -0.17400000000000002 L 0.449 -0.17400000000000002 Z"/></g></g></g><path fill="rgb(219,97,20)" stroke="none" paint-order="stroke fill markers" d=" M 319.5330755438109 283.0770763899874 C 319.5330755438109 285.83850013914133 317.2944992929649 288.0770763899874 314.5330755438109 288.0770763899874 C 311.771651794657 288.0770763899874 309.5330755438109 285.83850013914133 309.5330755438109 283.0770763899874 C 309.5330755438109 280.31565264083343 311.771651794657 278.0770763899874 314.5330755438109 278.0770763899874 C 317.2944992929649 278.0770763899874 319.5330755438109 280.31565264083343 319.5330755438109 283.0770763899874 Z" fill-opacity="1"/><path fill="none" stroke="rgb(0,0,0)" paint-order="fill stroke markers" d=" M 319.5330755438109 283.0770763899874 C 319.5330755438109 285.83850013914133 317.2944992929649 288.0770763899874 314.5330755438109 288.0770763899874 C 311.771651794657 288.0770763899874 309.5330755438109 285.83850013914133 309.5330755438109 283.0770763899874 C 309.5330755438109 280.31565264083343 311.771651794657 278.0770763899874 314.5330755438109 278.0770763899874 C 317.2944992929649 278.0770763899874 319.5330755438109 280.31565264083343 319.5330755438109 283.0770763899874 Z" stroke-opacity="1" stroke-linecap="round" stroke-linejoin="round" stroke-miterlimit="10"/><g transform="scale(19,19)"><g transform="translate(15.578947368421053,17.619977884210527) scale(1.4,1.4)"><rect fill="rgb(219,97,20)" stroke="none" x="0.5290306744397368" y="-1.2675040000000002" width="0.509" height="0.039999"/><g transform="translate(0.5290306744397368,-0.6765080000000003)"><path fill="rgb(219,97,20)" stroke="none" paint-order="stroke fill markers" d=" M 0.133 -0.083 L 0.133 -0.083 Q 0.14200000000000002 -0.08600000000000001 0.16 -0.08600000000000001 Q 0.186 -0.08600000000000001 0.23 -0.069 Q 0.269 -0.056 0.289 -0.056 Q 0.342 -0.056 0.38 -0.094 Q 0.4 -0.113 0.40900000000000003 -0.14 Q 0.41500000000000004 -0.153 0.423 -0.153 Q 0.435 -0.153 0.435 -0.14300000000000002 Q 0.435 -0.117 0.403 -0.069 Q 0.34900000000000003 0.011 0.278 0.011 Q 0.244 0.011 0.214 -0.026000000000000002 Q 0.186 -0.059000000000000004 0.169 -0.063 Q 0.164 -0.064 0.156 -0.064 Q 0.112 -0.064 0.07100000000000001 -0.002 Q 0.064 0.011 0.055 0.011 Q 0.043000000000000003 0.011 0.043000000000000003 0.001 Q 0.043000000000000003 -0.011 0.089 -0.067 Q 0.115 -0.099 0.146 -0.13 L 0.23600000000000002 -0.214 Q 0.335 -0.298 0.375 -0.34500000000000003 Q 0.339 -0.34500000000000003 0.298 -0.36 Q 0.255 -0.375 0.23500000000000001 -0.375 Q 0.177 -0.375 0.155 -0.337 Q 0.152 -0.333 0.15 -0.328 Q 0.146 -0.317 0.137 -0.317 Q 0.125 -0.317 0.125 -0.328 Q 0.125 -0.35000000000000003 0.154 -0.388 Q 0.194 -0.442 0.246 -0.442 Q 0.279 -0.442 0.308 -0.40700000000000003 L 0.309 -0.406 Q 0.311 -0.403 0.315 -0.399 Q 0.339 -0.372 0.354 -0.368 Q 0.36 -0.367 0.366 -0.367 Q 0.4 -0.367 0.437 -0.425 L 0.441 -0.431 Q 0.447 -0.442 0.456 -0.442 Q 0.467 -0.442 0.467 -0.432 Q 0.467 -0.42 0.425 -0.368 Q 0.395 -0.331 0.35000000000000003 -0.28700000000000003 Q 0.34400000000000003 -0.281 0.255 -0.2 L 0.252 -0.197 Q 0.187 -0.14100000000000001 0.133 -0.083 Z"/></g><rect fill="rgb(219,97,20)" stroke="none" x="0.0629219374673684" y="-0.2699995000000001" width="1.4412174739447368" height="0.039999"/><g transform="translate(0.0629219374673684,0.8205208999999998)"><path fill="rgb(219,97,20)" stroke="none" paint-order="stroke fill markers" d=" M 0.159 -0.717 L 0.159 0.217 Q 0.159 0.249 0.139 0.25 Q 0.11900000000000001 0.25 0.11900000000000001 0.217 L 0.11900000000000001 -0.717 Q 0.11900000000000001 -0.749 0.139 -0.75 Q 0.159 -0.75 0.159 -0.717 Z"/></g><g transform="translate(0.34092193746736843,0.8205208999999998)"><path fill="rgb(219,97,20)" stroke="none" paint-order="stroke fill markers" d=" M 0.133 -0.083 L 0.133 -0.083 Q 0.14200000000000002 -0.08600000000000001 0.16 -0.08600000000000001 Q 0.186 -0.08600000000000001 0.23 -0.069 Q 0.269 -0.056 0.289 -0.056 Q 0.342 -0.056 0.38 -0.094 Q 0.4 -0.113 0.40900000000000003 -0.14 Q 0.41500000000000004 -0.153 0.423 -0.153 Q 0.435 -0.153 0.435 -0.14300000000000002 Q 0.435 -0.117 0.403 -0.069 Q 0.34900000000000003 0.011 0.278 0.011 Q 0.244 0.011 0.214 -0.026000000000000002 Q 0.186 -0.059000000000000004 0.169 -0.063 Q 0.164 -0.064 0.156 -0.064 Q 0.112 -0.064 0.07100000000000001 -0.002 Q 0.064 0.011 0.055 0.011 Q 0.043000000000000003 0.011 0.043000000000000003 0.001 Q 0.043000000000000003 -0.011 0.089 -0.067 Q 0.115 -0.099 0.146 -0.13 L 0.23600000000000002 -0.214 Q 0.335 -0.298 0.375 -0.34500000000000003 Q 0.339 -0.34500000000000003 0.298 -0.36 Q 0.255 -0.375 0.23500000000000001 -0.375 Q 0.177 -0.375 0.155 -0.337 Q 0.152 -0.333 0.15 -0.328 Q 0.146 -0.317 0.137 -0.317 Q 0.125 -0.317 0.125 -0.328 Q 0.125 -0.35000000000000003 0.154 -0.388 Q 0.194 -0.442 0.246 -0.442 Q 0.279 -0.442 0.308 -0.40700000000000003 L 0.309 -0.406 Q 0.311 -0.403 0.315 -0.399 Q 0.339 -0.372 0.354 -0.368 Q 0.36 -0.367 0.366 -0.367 Q 0.4 -0.367 0.437 -0.425 L 0.441 -0.431 Q 0.447 -0.442 0.456 -0.442 Q 0.467 -0.442 0.467 -0.432 Q 0.467 -0.42 0.425 -0.368 Q 0.395 -0.331 0.35000000000000003 -0.28700000000000003 Q 0.34400000000000003 -0.281 0.255 -0.2 L 0.252 -0.197 Q 0.187 -0.14100000000000001 0.133 -0.083 Z"/></g><g transform="translate(0.8499219374673684,0.8205208999999998)"><path fill="rgb(219,97,20)" stroke="none" paint-order="stroke fill markers" d=" M 0.159 -0.717 L 0.159 0.217 Q 0.159 0.249 0.139 0.25 Q 0.11900000000000001 0.25 0.11900000000000001 0.217 L 0.11900000000000001 -0.717 Q 0.11900000000000001 -0.749 0.139 -0.75 Q 0.159 -0.75 0.159 -0.717 Z"/></g><g transform="translate(1.1279219374673684,0.3407964999999998) scale(0.7,0.7)"><path fill="rgb(219,97,20)" stroke="none" paint-order="stroke fill markers" d=" M 0.449 -0.17400000000000002 L 0.449 -0.17400000000000002 L 0.421 0 L 0.05 0 Q 0.05 -0.025 0.056 -0.032 L 0.061 -0.037 L 0.253 -0.251 Q 0.358 -0.369 0.358 -0.47200000000000003 Q 0.358 -0.561 0.304 -0.607 L 0.303 -0.608 L 0.302 -0.608 Q 0.27 -0.635 0.224 -0.635 Q 0.152 -0.635 0.109 -0.5730000000000001 Q 0.097 -0.555 0.089 -0.533 Q 0.092 -0.534 0.10200000000000001 -0.534 Q 0.14200000000000002 -0.534 0.153 -0.498 L 0.153 -0.497 Q 0.155 -0.49 0.155 -0.482 Q 0.155 -0.442 0.117 -0.431 Q 0.109 -0.429 0.10300000000000001 -0.429 Q 0.066 -0.429 0.054 -0.46 Q 0.05 -0.47100000000000003 0.05 -0.485 Q 0.05 -0.562 0.109 -0.617 Q 0.162 -0.666 0.23700000000000002 -0.666 Q 0.34700000000000003 -0.666 0.40800000000000003 -0.592 Q 0.443 -0.549 0.448 -0.49 Q 0.449 -0.481 0.449 -0.47200000000000003 Q 0.449 -0.399 0.394 -0.333 Q 0.365 -0.299 0.304 -0.243 L 0.243 -0.189 L 0.233 -0.18 L 0.127 -0.077 L 0.307 -0.077 Q 0.395 -0.077 0.402 -0.085 Q 0.41200000000000003 -0.099 0.424 -0.17400000000000002 L 0.449 -0.17400000000000002 Z"/></g></g></g></g></g></svg>