<svg version="1.1" xmlns="http://www.w3.org/2000/svg" xmlns:xlink="http://www.w3.org/1999/xlink" width="868" height="413"><defs><clipPath id="ubAFhnXbbTkP"><path fill="none" stroke="none" d=" M 0 0 L 868 0 L 868 413 L 0 413 L 0 0 Z"/></clipPath></defs><g transform="scale(1,1)" clip-path="url(#ubAFhnXbbTkP)"><g><rect fill="rgb(255,255,255)" stroke="none" x="0" y="0" width="868" height="413" fill-opacity="1"/><path fill="rgb(0,0,0)" stroke="none" paint-order="stroke fill markers" fill-rule="evenodd" d=" M 239.91630353117947 203.47903831705474 L 307.5346356123214 203.47903831705474 L 329.32276483846715 266.58948159278725 L 292.50833959428985 304.90653643876783 L 392.4332081141998 355.24462809917327 L 462.3054845980466 345.4775356874528 L 611.8171299774601 322.93809166040563 L 710.9906836964683 301.1499624342599 L 780.1116453794135 256.0710743801651 L 786.1221637866261 203.47903831705474 L 768.8419233658898 163.65935386927123 L 719.2551465063857 142.62253944402707 L 699.7209616829447 125.3422990232908 L 649.382870022539 94.53839218632628 L 608.0605559729522 75.0042073628853 L 505.1304282494364 73.50157776108215 L 483.3422990232907 107.31074380165303 L 463.8081141998497 147.88174305033812 L 405.20555972952656 150.88700225394442 L 370.64507888805406 157.64883546205857 L 294.010969196093 167.4159278737791 L 240.66761833208102 147.88174305033812 L 215.87422990232898 159.90277986476332 L 219.63080390683686 179.43696468820423 Z" fill-opacity="0.027450980392156862"/><path fill="none" stroke="rgb(219,97,20)" paint-order="fill stroke markers" d=" M 189.32585796361928 262.6976709241171 C 189.32585796361928 295.7368786701692 162.54228813673558 322.520448497053 129.50308039068355 322.520448497053 C 96.46387264463154 322.520448497053 69.6803028177478 295.7368786701692 69.6803028177478 262.6976709241171 C 69.6803028177478 229.658463178065 96.46387264463154 202.8748933511812 129.50308039068355 202.8748933511812 C 162.54228813673558 202.8748933511812 189.32585796361928 229.658463178065 189.32585796361928 262.6976709241171 Z" stroke-opacity="0.8" stroke-linejoin="round" stroke-miterlimit="10" stroke-width="3" stroke-dasharray="11,8"/><g transform="scale(19,19)"><g transform="translate(4.947368421052632,9.628947368421052) scale(1.4,1.4)"><g transform="translate(0,0)"><path fill="rgb(219,97,20)" stroke="none" paint-order="stroke fill markers" d=" M 0.635 -0.578 L 0.546 -0.223 Q 0.519 -0.114 0.428 -0.041 Q 0.34900000000000003 0.022 0.263 0.022 Q 0.164 0.022 0.108 -0.047 Q 0.067 -0.097 0.067 -0.17 Q 0.067 -0.2 0.074 -0.228 L 0.135 -0.47500000000000003 L 0.157 -0.5630000000000001 Q 0.17400000000000002 -0.628 0.17400000000000002 -0.634 Q 0.17400000000000002 -0.646 0.158 -0.649 L 0.157 -0.649 L 0.156 -0.649 Q 0.153 -0.649 0.147 -0.65 Q 0.13 -0.652 0.109 -0.652 Q 0.083 -0.652 0.081 -0.663 Q 0.081 -0.683 0.1 -0.683 L 0.228 -0.68 L 0.229 -0.68 L 0.356 -0.683 L 0.357 -0.683 Q 0.371 -0.683 0.371 -0.672 Q 0.371 -0.655 0.357 -0.653 L 0.356 -0.653 L 0.356 -0.653 L 0.356 -0.653 L 0.355 -0.652 L 0.337 -0.652 Q 0.276 -0.652 0.264 -0.636 Q 0.259 -0.629 0.253 -0.606 L 0.156 -0.217 Q 0.145 -0.17300000000000001 0.145 -0.139 Q 0.145 -0.05 0.213 -0.02 Q 0.23800000000000002 -0.009000000000000001 0.267 -0.009000000000000001 Q 0.355 -0.009000000000000001 0.431 -0.082 Q 0.494 -0.14300000000000002 0.516 -0.23 L 0.606 -0.587 Q 0.609 -0.596 0.609 -0.608 Q 0.609 -0.651 0.541 -0.652 Q 0.523 -0.652 0.523 -0.663 Q 0.523 -0.683 0.541 -0.683 L 0.644 -0.68 L 0.645 -0.68 L 0.744 -0.683 L 0.747 -0.683 Q 0.76 -0.683 0.76 -0.672 Q 0.76 -0.652 0.743 -0.652 Q 0.664 -0.649 0.643 -0.604 Q 0.639 -0.593 0.635 -0.578 Z"/></g><g transform="translate(0.792,0)"><path fill="rgb(219,97,20)" stroke="none" paint-order="stroke fill markers" d=" M 0.331 0.24 L 0.331 0.24 Q 0.331 0.25 0.321 0.25 Q 0.309 0.25 0.268 0.209 Q 0.20600000000000002 0.147 0.165 0.062 Q 0.099 -0.074 0.099 -0.25 Q 0.099 -0.419 0.162 -0.555 Q 0.214 -0.666 0.294 -0.733 Q 0.315 -0.75 0.321 -0.75 Q 0.331 -0.75 0.331 -0.74 Q 0.331 -0.735 0.318 -0.723 Q 0.157 -0.559 0.157 -0.25 Q 0.157 0.058 0.314 0.218 Q 0.331 0.23500000000000001 0.331 0.24 Z"/></g><g transform="translate(1.181,0)"><path fill="rgb(219,97,20)" stroke="none" paint-order="stroke fill markers" d=" M 0.76 -0.6950000000000001 L 0.6970000000000001 -0.44 Q 0.6920000000000001 -0.422 0.687 -0.421 L 0.686 -0.42 L 0.679 -0.42 Q 0.664 -0.42 0.664 -0.43 L 0.667 -0.47900000000000004 L 0.667 -0.481 Q 0.667 -0.605 0.589 -0.652 L 0.588 -0.653 Q 0.553 -0.674 0.506 -0.674 Q 0.4 -0.674 0.305 -0.595 Q 0.281 -0.5760000000000001 0.262 -0.553 Q 0.167 -0.442 0.145 -0.271 Q 0.14100000000000001 -0.24 0.14100000000000001 -0.217 Q 0.14100000000000001 -0.077 0.247 -0.028 Q 0.28800000000000003 -0.009000000000000001 0.337 -0.009000000000000001 Q 0.431 -0.009000000000000001 0.521 -0.082 Q 0.591 -0.14100000000000001 0.622 -0.24 Q 0.624 -0.25 0.635 -0.25 Q 0.647 -0.25 0.647 -0.24 Q 0.647 -0.222 0.624 -0.176 Q 0.593 -0.113 0.537 -0.064 Q 0.438 0.022 0.321 0.022 Q 0.193 0.022 0.116 -0.066 Q 0.05 -0.14100000000000001 0.05 -0.252 Q 0.05 -0.401 0.159 -0.531 Q 0.26 -0.652 0.398 -0.6910000000000001 Q 0.449 -0.705 0.498 -0.705 Q 0.607 -0.705 0.664 -0.616 L 0.734 -0.6930000000000001 Q 0.746 -0.705 0.749 -0.705 Q 0.76 -0.705 0.76 -0.6950000000000001 Z"/></g><g transform="translate(1.968,0)"><path fill="rgb(219,97,20)" stroke="none" paint-order="stroke fill markers" d=" M 0.203 -0.001 L 0.203 -0.001 Q 0.203 0.096 0.14 0.169 Q 0.123 0.189 0.112 0.193 Q 0.10200000000000001 0.193 0.10200000000000001 0.182 Q 0.10200000000000001 0.177 0.113 0.166 Q 0.17300000000000001 0.106 0.18 0.019 Q 0.181 0.009000000000000001 0.181 -0.001 Q 0.181 -0.016 0.179 -0.016 Q 0.178 -0.016 0.17400000000000002 -0.013000000000000001 Q 0.16 0 0.139 0 Q 0.10200000000000001 0 0.09 -0.034 Q 0.08600000000000001 -0.043000000000000003 0.08600000000000001 -0.053 Q 0.08600000000000001 -0.089 0.117 -0.10200000000000001 Q 0.127 -0.106 0.139 -0.106 Q 0.183 -0.106 0.198 -0.048 Q 0.203 -0.027 0.203 -0.001 Z"/></g><g transform="translate(2.4126666666666665,0)"><path fill="rgb(219,97,20)" stroke="none" paint-order="stroke fill markers" d=" M 0.264 -0.437 Q 0.213 -0.537 0.20600000000000002 -0.581 Q 0.20400000000000001 -0.595 0.20400000000000001 -0.608 Q 0.20400000000000001 -0.687 0.276 -0.706 Q 0.295 -0.711 0.318 -0.711 Q 0.34800000000000003 -0.711 0.4 -0.7000000000000001 Q 0.442 -0.6910000000000001 0.448 -0.681 Q 0.452 -0.676 0.452 -0.667 Q 0.452 -0.644 0.43 -0.632 Q 0.422 -0.627 0.41200000000000003 -0.627 Q 0.399 -0.627 0.357 -0.652 Q 0.316 -0.679 0.28600000000000003 -0.679 Q 0.247 -0.679 0.234 -0.649 Q 0.231 -0.641 0.231 -0.633 Q 0.231 -0.588 0.326 -0.46900000000000003 Q 0.374 -0.406 0.388 -0.364 Q 0.4 -0.326 0.4 -0.28300000000000003 Q 0.4 -0.169 0.34 -0.078 Q 0.281 0.012 0.2 0.012 Q 0.113 0.012 0.069 -0.058 Q 0.042 -0.1 0.042 -0.156 Q 0.042 -0.257 0.117 -0.34400000000000003 Q 0.18 -0.417 0.264 -0.437 M 0.276 -0.41500000000000004 Q 0.17200000000000001 -0.387 0.125 -0.245 Q 0.10400000000000001 -0.18 0.10400000000000001 -0.128 Q 0.10400000000000001 -0.044 0.161 -0.018000000000000002 Q 0.179 -0.01 0.2 -0.01 Q 0.268 -0.01 0.307 -0.11900000000000001 Q 0.331 -0.186 0.331 -0.243 Q 0.331 -0.313 0.28300000000000003 -0.403 Q 0.281 -0.406 0.276 -0.41500000000000004 Z"/></g><g transform="translate(2.8946666666666667,0)"><path fill="rgb(219,97,20)" stroke="none" paint-order="stroke fill markers" d=" M 0.289 -0.25 L 0.289 -0.25 Q 0.289 -0.081 0.226 0.055 Q 0.17400000000000002 0.166 0.094 0.233 Q 0.073 0.25 0.067 0.25 Q 0.057 0.25 0.057 0.24 Q 0.057 0.23500000000000001 0.07 0.223 Q 0.231 0.059000000000000004 0.231 -0.25 Q 0.231 -0.555 0.081 -0.712 L 0.076 -0.717 Q 0.057 -0.735 0.057 -0.74 Q 0.057 -0.75 0.067 -0.75 Q 0.079 -0.75 0.12 -0.709 Q 0.182 -0.647 0.223 -0.562 Q 0.289 -0.426 0.289 -0.25 Z"/></g></g></g><path fill="none" stroke="rgb(21,101,192)" paint-order="fill stroke markers" d=" M 444.5407404049974 157.64883546205857 C 444.5407404049974 198.4602823965247 411.4565258225201 231.54449697900208 370.64507888805406 231.54449697900208 C 329.83363195358805 231.54449697900208 296.7494173711108 198.4602823965247 296.7494173711108 157.64883546205857 C 296.7494173711108 116.83738852759245 329.83363195358805 83.75317394511508 370.64507888805406 83.75317394511508 C 411.4565258225201 83.75317394511508 444.5407404049974 116.83738852759245 444.5407404049974 157.64883546205857 Z" stroke-opacity="0.8" stroke-linejoin="round" stroke-miterlimit="10" stroke-width="3" stroke-dasharray="11,8"/><g transform="scale(19,19)"><g transform="translate(16.94736842105263,3.5236842105263158) scale(1.4,1.4)"><g transform="translate(0,0)"><path fill="rgb(21,101,192)" stroke="none" paint-order="stroke fill markers" d=" M 0.635 -0.578 L 0.546 -0.223 Q 0.519 -0.114 0.428 -0.041 Q 0.34900000000000003 0.022 0.263 0.022 Q 0.164 0.022 0.108 -0.047 Q 0.067 -0.097 0.067 -0.17 Q 0.067 -0.2 0.074 -0.228 L 0.135 -0.47500000000000003 L 0.157 -0.5630000000000001 Q 0.17400000000000002 -0.628 0.17400000000000002 -0.634 Q 0.17400000000000002 -0.646 0.158 -0.649 L 0.157 -0.649 L 0.156 -0.649 Q 0.153 -0.649 0.147 -0.65 Q 0.13 -0.652 0.109 -0.652 Q 0.083 -0.652 0.081 -0.663 Q 0.081 -0.683 0.1 -0.683 L 0.228 -0.68 L 0.229 -0.68 L 0.356 -0.683 L 0.357 -0.683 Q 0.371 -0.683 0.371 -0.672 Q 0.371 -0.655 0.357 -0.653 L 0.356 -0.653 L 0.356 -0.653 L 0.356 -0.653 L 0.355 -0.652 L 0.337 -0.652 Q 0.276 -0.652 0.264 -0.636 Q 0.259 -0.629 0.253 -0.606 L 0.156 -0.217 Q 0.145 -0.17300000000000001 0.145 -0.139 Q 0.145 -0.05 0.213 -0.02 Q 0.23800000000000002 -0.009000000000000001 0.267 -0.009000000000000001 Q 0.355 -0.009000000000000001 0.431 -0.082 Q 0.494 -0.14300000000000002 0.516 -0.23 L 0.606 -0.587 Q 0.609 -0.596 0.609 -0.608 Q 0.609 -0.651 0.541 -0.652 Q 0.523 -0.652 0.523 -0.663 Q 0.523 -0.683 0.541 -0.683 L 0.644 -0.68 L 0.645 -0.68 L 0.744 -0.683 L 0.747 -0.683 Q 0.76 -0.683 0.76 -0.672 Q 0.76 -0.652 0.743 -0.652 Q 0.664 -0.649 0.643 -0.604 Q 0.639 -0.593 0.635 -0.578 Z"/></g><g transform="translate(0.792,0)"><path fill="rgb(21,101,192)" stroke="none" paint-order="stroke fill markers" d=" M 0.331 0.24 L 0.331 0.24 Q 0.331 0.25 0.321 0.25 Q 0.309 0.25 0.268 0.209 Q 0.20600000000000002 0.147 0.165 0.062 Q 0.099 -0.074 0.099 -0.25 Q 0.099 -0.419 0.162 -0.555 Q 0.214 -0.666 0.294 -0.733 Q 0.315 -0.75 0.321 -0.75 Q 0.331 -0.75 0.331 -0.74 Q 0.331 -0.735 0.318 -0.723 Q 0.157 -0.559 0.157 -0.25 Q 0.157 0.058 0.314 0.218 Q 0.331 0.23500000000000001 0.331 0.24 Z"/></g><g transform="translate(1.181,0)"><path fill="rgb(21,101,192)" stroke="none" paint-order="stroke fill markers" d=" M 0.16 -0.078 L 0.294 -0.615 Q 0.298 -0.631 0.298 -0.634 Q 0.298 -0.646 0.28200000000000003 -0.649 L 0.281 -0.649 L 0.28 -0.649 Q 0.277 -0.649 0.271 -0.65 Q 0.254 -0.652 0.233 -0.652 Q 0.20700000000000002 -0.652 0.20500000000000002 -0.663 Q 0.20500000000000002 -0.681 0.22 -0.683 L 0.221 -0.683 L 0.222 -0.683 L 0.234 -0.683 L 0.5700000000000001 -0.683 Q 0.685 -0.683 0.734 -0.615 Q 0.756 -0.583 0.756 -0.545 Q 0.756 -0.464 0.666 -0.404 Q 0.665 -0.404 0.664 -0.403 Q 0.611 -0.369 0.547 -0.357 Q 0.649 -0.34500000000000003 0.687 -0.277 Q 0.7020000000000001 -0.249 0.7020000000000001 -0.216 Q 0.7020000000000001 -0.14300000000000002 0.632 -0.079 L 0.631 -0.078 Q 0.545 0 0.426 0 L 0.069 0 Q 0.044 0 0.042 -0.011 Q 0.042 -0.029 0.057 -0.031 L 0.069 -0.031 Q 0.134 -0.031 0.147 -0.045 Q 0.153 -0.052000000000000005 0.159 -0.073 Q 0.159 -0.074 0.16 -0.078 M 0.311 -0.366 L 0.457 -0.366 Q 0.556 -0.366 0.62 -0.438 Q 0.665 -0.489 0.665 -0.549 Q 0.665 -0.622 0.605 -0.644 Q 0.584 -0.652 0.556 -0.652 L 0.427 -0.652 Q 0.391 -0.652 0.383 -0.642 L 0.383 -0.642 L 0.383 -0.641 L 0.382 -0.641 L 0.382 -0.64 Q 0.378 -0.634 0.373 -0.614 L 0.311 -0.366 M 0.266 -0.031 L 0.402 -0.031 Q 0.498 -0.031 0.561 -0.10300000000000001 Q 0.609 -0.159 0.609 -0.227 Q 0.609 -0.3 0.557 -0.33 Q 0.531 -0.34400000000000003 0.494 -0.34400000000000003 L 0.305 -0.34400000000000003 L 0.23600000000000002 -0.065 Q 0.231 -0.047 0.231 -0.042 Q 0.231 -0.034 0.24 -0.032 L 0.24 -0.032 L 0.24 -0.032 L 0.244 -0.032 Q 0.25 -0.031 0.266 -0.031 Z"/></g><g transform="translate(1.9900000000000002,0)"><path fill="rgb(21,101,192)" stroke="none" paint-order="stroke fill markers" d=" M 0.203 -0.001 L 0.203 -0.001 Q 0.203 0.096 0.14 0.169 Q 0.123 0.189 0.112 0.193 Q 0.10200000000000001 0.193 0.10200000000000001 0.182 Q 0.10200000000000001 0.177 0.113 0.166 Q 0.17300000000000001 0.106 0.18 0.019 Q 0.181 0.009000000000000001 0.181 -0.001 Q 0.181 -0.016 0.179 -0.016 Q 0.178 -0.016 0.17400000000000002 -0.013000000000000001 Q 0.16 0 0.139 0 Q 0.10200000000000001 0 0.09 -0.034 Q 0.08600000000000001 -0.043000000000000003 0.08600000000000001 -0.053 Q 0.08600000000000001 -0.089 0.117 -0.10200000000000001 Q 0.127 -0.106 0.139 -0.106 Q 0.183 -0.106 0.198 -0.048 Q 0.203 -0.027 0.203 -0.001 Z"/></g><g transform="translate(2.4346666666666668,0)"><path fill="rgb(21,101,192)" stroke="none" paint-order="stroke fill markers" d=" M 0.264 -0.437 Q 0.213 -0.537 0.20600000000000002 -0.581 Q 0.20400000000000001 -0.595 0.20400000000000001 -0.608 Q 0.20400000000000001 -0.687 0.276 -0.706 Q 0.295 -0.711 0.318 -0.711 Q 0.34800000000000003 -0.711 0.4 -0.7000000000000001 Q 0.442 -0.6910000000000001 0.448 -0.681 Q 0.452 -0.676 0.452 -0.667 Q 0.452 -0.644 0.43 -0.632 Q 0.422 -0.627 0.41200000000000003 -0.627 Q 0.399 -0.627 0.357 -0.652 Q 0.316 -0.679 0.28600000000000003 -0.679 Q 0.247 -0.679 0.234 -0.649 Q 0.231 -0.641 0.231 -0.633 Q 0.231 -0.588 0.326 -0.46900000000000003 Q 0.374 -0.406 0.388 -0.364 Q 0.4 -0.326 0.4 -0.28300000000000003 Q 0.4 -0.169 0.34 -0.078 Q 0.281 0.012 0.2 0.012 Q 0.113 0.012 0.069 -0.058 Q 0.042 -0.1 0.042 -0.156 Q 0.042 -0.257 0.117 -0.34400000000000003 Q 0.18 -0.417 0.264 -0.437 M 0.276 -0.41500000000000004 Q 0.17200000000000001 -0.387 0.125 -0.245 Q 0.10400000000000001 -0.18 0.10400000000000001 -0.128 Q 0.10400000000000001 -0.044 0.161 -0.018000000000000002 Q 0.179 -0.01 0.2 -0.01 Q 0.268 -0.01 0.307 -0.11900000000000001 Q 0.331 -0.186 0.331 -0.243 Q 0.331 -0.313 0.28300000000000003 -0.403 Q 0.281 -0.406 0.276 -0.41500000000000004 Z"/></g><g transform="translate(2.916666666666667,0)"><path fill="rgb(21,101,192)" stroke="none" paint-order="stroke fill markers" d=" M 0.289 -0.25 L 0.289 -0.25 Q 0.289 -0.081 0.226 0.055 Q 0.17400000000000002 0.166 0.094 0.233 Q 0.073 0.25 0.067 0.25 Q 0.057 0.25 0.057 0.24 Q 0.057 0.23500000000000001 0.07 0.223 Q 0.231 0.059000000000000004 0.231 -0.25 Q 0.231 -0.555 0.081 -0.712 L 0.076 -0.717 Q 0.057 -0.735 0.057 -0.74 Q 0.057 -0.75 0.067 -0.75 Q 0.079 -0.75 0.12 -0.709 Q 0.182 -0.647 0.223 -0.562 Q 0.289 -0.426 0.289 -0.25 Z"/></g></g></g><path fill="none" stroke="rgb(46,125,50)" paint-order="fill stroke markers" d=" M 633.6664480978777 227.87272727272727 C 633.6664480978777 264.8120883734435 603.7211792825343 294.75735718878695 566.7818181818182 294.75735718878695 C 529.842457081102 294.75735718878695 499.8971882657586 264.8120883734435 499.8971882657586 227.87272727272727 C 499.8971882657586 190.933366172011 529.842457081102 160.98809735666754 566.7818181818182 160.98809735666754 C 603.7211792825343 160.98809735666754 633.6664480978777 190.933366172011 633.6664480978777 227.87272727272727 Z" stroke-opacity="0.8" stroke-linejoin="round" stroke-miterlimit="10" stroke-width="3" stroke-dasharray="11,8"/><g transform="scale(19,19)"><g transform="translate(27.736842105263158,7.786842105263157) scale(1.4,1.4)"><g transform="translate(0,0)"><path fill="rgb(46,125,50)" stroke="none" paint-order="stroke fill markers" d=" M 0.635 -0.578 L 0.546 -0.223 Q 0.519 -0.114 0.428 -0.041 Q 0.34900000000000003 0.022 0.263 0.022 Q 0.164 0.022 0.108 -0.047 Q 0.067 -0.097 0.067 -0.17 Q 0.067 -0.2 0.074 -0.228 L 0.135 -0.47500000000000003 L 0.157 -0.5630000000000001 Q 0.17400000000000002 -0.628 0.17400000000000002 -0.634 Q 0.17400000000000002 -0.646 0.158 -0.649 L 0.157 -0.649 L 0.156 -0.649 Q 0.153 -0.649 0.147 -0.65 Q 0.13 -0.652 0.109 -0.652 Q 0.083 -0.652 0.081 -0.663 Q 0.081 -0.683 0.1 -0.683 L 0.228 -0.68 L 0.229 -0.68 L 0.356 -0.683 L 0.357 -0.683 Q 0.371 -0.683 0.371 -0.672 Q 0.371 -0.655 0.357 -0.653 L 0.356 -0.653 L 0.356 -0.653 L 0.356 -0.653 L 0.355 -0.652 L 0.337 -0.652 Q 0.276 -0.652 0.264 -0.636 Q 0.259 -0.629 0.253 -0.606 L 0.156 -0.217 Q 0.145 -0.17300000000000001 0.145 -0.139 Q 0.145 -0.05 0.213 -0.02 Q 0.23800000000000002 -0.009000000000000001 0.267 -0.009000000000000001 Q 0.355 -0.009000000000000001 0.431 -0.082 Q 0.494 -0.14300000000000002 0.516 -0.23 L 0.606 -0.587 Q 0.609 -0.596 0.609 -0.608 Q 0.609 -0.651 0.541 -0.652 Q 0.523 -0.652 0.523 -0.663 Q 0.523 -0.683 0.541 -0.683 L 0.644 -0.68 L 0.645 -0.68 L 0.744 -0.683 L 0.747 -0.683 Q 0.76 -0.683 0.76 -0.672 Q 0.76 -0.652 0.743 -0.652 Q 0.664 -0.649 0.643 -0.604 Q 0.639 -0.593 0.635 -0.578 Z"/></g><g transform="translate(0.792,0)"><path fill="rgb(46,125,50)" stroke="none" paint-order="stroke fill markers" d=" M 0.331 0.24 L 0.331 0.24 Q 0.331 0.25 0.321 0.25 Q 0.309 0.25 0.268 0.209 Q 0.20600000000000002 0.147 0.165 0.062 Q 0.099 -0.074 0.099 -0.25 Q 0.099 -0.419 0.162 -0.555 Q 0.214 -0.666 0.294 -0.733 Q 0.315 -0.75 0.321 -0.75 Q 0.331 -0.75 0.331 -0.74 Q 0.331 -0.735 0.318 -0.723 Q 0.157 -0.559 0.157 -0.25 Q 0.157 0.058 0.314 0.218 Q 0.331 0.23500000000000001 0.331 0.24 Z"/></g><g transform="translate(1.181,0)"><path fill="rgb(46,125,50)" stroke="none" paint-order="stroke fill markers" d=" M 0.179 -0.115 L 0.527 -0.6990000000000001 Q 0.537 -0.715 0.553 -0.716 Q 0.5680000000000001 -0.716 0.5700000000000001 -0.706 Q 0.5710000000000001 -0.7030000000000001 0.5720000000000001 -0.6920000000000001 L 0.633 -0.067 Q 0.636 -0.042 0.645 -0.037 L 0.646 -0.037 L 0.646 -0.037 L 0.646 -0.037 L 0.646 -0.037 L 0.646 -0.036000000000000004 Q 0.658 -0.031 0.6980000000000001 -0.031 Q 0.72 -0.031 0.721 -0.02 Q 0.721 0 0.7030000000000001 0 L 0.591 -0.003 L 0.59 -0.003 L 0.466 0 L 0.465 0 Q 0.451 0 0.451 -0.011 Q 0.459 -0.03 0.47500000000000003 -0.031 Q 0.547 -0.031 0.547 -0.064 Q 0.547 -0.063 0.531 -0.231 L 0.28 -0.231 L 0.20400000000000001 -0.10300000000000001 Q 0.19 -0.078 0.19 -0.066 Q 0.19 -0.035 0.23700000000000002 -0.031 Q 0.253 -0.031 0.253 -0.019 Q 0.253 0 0.234 0 L 0.138 -0.003 L 0.134 -0.003 L 0.05 0 L 0.048 0 Q 0.035 0 0.035 -0.011 Q 0.035 -0.029 0.05 -0.03 L 0.05 -0.031 L 0.056 -0.031 Q 0.11900000000000001 -0.035 0.159 -0.085 Q 0.169 -0.098 0.179 -0.115 M 0.299 -0.262 L 0.528 -0.262 L 0.496 -0.592 L 0.299 -0.262 Z"/></g><g transform="translate(1.931,0)"><path fill="rgb(46,125,50)" stroke="none" paint-order="stroke fill markers" d=" M 0.203 -0.001 L 0.203 -0.001 Q 0.203 0.096 0.14 0.169 Q 0.123 0.189 0.112 0.193 Q 0.10200000000000001 0.193 0.10200000000000001 0.182 Q 0.10200000000000001 0.177 0.113 0.166 Q 0.17300000000000001 0.106 0.18 0.019 Q 0.181 0.009000000000000001 0.181 -0.001 Q 0.181 -0.016 0.179 -0.016 Q 0.178 -0.016 0.17400000000000002 -0.013000000000000001 Q 0.16 0 0.139 0 Q 0.10200000000000001 0 0.09 -0.034 Q 0.08600000000000001 -0.043000000000000003 0.08600000000000001 -0.053 Q 0.08600000000000001 -0.089 0.117 -0.10200000000000001 Q 0.127 -0.106 0.139 -0.106 Q 0.183 -0.106 0.198 -0.048 Q 0.203 -0.027 0.203 -0.001 Z"/></g><g transform="translate(2.3756666666666666,0)"><path fill="rgb(46,125,50)" stroke="none" paint-order="stroke fill markers" d=" M 0.264 -0.437 Q 0.213 -0.537 0.20600000000000002 -0.581 Q 0.20400000000000001 -0.595 0.20400000000000001 -0.608 Q 0.20400000000000001 -0.687 0.276 -0.706 Q 0.295 -0.711 0.318 -0.711 Q 0.34800000000000003 -0.711 0.4 -0.7000000000000001 Q 0.442 -0.6910000000000001 0.448 -0.681 Q 0.452 -0.676 0.452 -0.667 Q 0.452 -0.644 0.43 -0.632 Q 0.422 -0.627 0.41200000000000003 -0.627 Q 0.399 -0.627 0.357 -0.652 Q 0.316 -0.679 0.28600000000000003 -0.679 Q 0.247 -0.679 0.234 -0.649 Q 0.231 -0.641 0.231 -0.633 Q 0.231 -0.588 0.326 -0.46900000000000003 Q 0.374 -0.406 0.388 -0.364 Q 0.4 -0.326 0.4 -0.28300000000000003 Q 0.4 -0.169 0.34 -0.078 Q 0.281 0.012 0.2 0.012 Q 0.113 0.012 0.069 -0.058 Q 0.042 -0.1 0.042 -0.156 Q 0.042 -0.257 0.117 -0.34400000000000003 Q 0.18 -0.417 0.264 -0.437 M 0.276 -0.41500000000000004 Q 0.17200000000000001 -0.387 0.125 -0.245 Q 0.10400000000000001 -0.18 0.10400000000000001 -0.128 Q 0.10400000000000001 -0.044 0.161 -0.018000000000000002 Q 0.179 -0.01 0.2 -0.01 Q 0.268 -0.01 0.307 -0.11900000000000001 Q 0.331 -0.186 0.331 -0.243 Q 0.331 -0.313 0.28300000000000003 -0.403 Q 0.281 -0.406 0.276 -0.41500000000000004 Z"/></g><g transform="translate(2.857666666666667,0)"><path fill="rgb(46,125,50)" stroke="none" paint-order="stroke fill markers" d=" M 0.289 -0.25 L 0.289 -0.25 Q 0.289 -0.081 0.226 0.055 Q 0.17400000000000002 0.166 0.094 0.233 Q 0.073 0.25 0.067 0.25 Q 0.057 0.25 0.057 0.24 Q 0.057 0.23500000000000001 0.07 0.223 Q 0.231 0.059000000000000004 0.231 -0.25 Q 0.231 -0.555 0.081 -0.712 L 0.076 -0.717 Q 0.057 -0.735 0.057 -0.74 Q 0.057 -0.75 0.067 -0.75 Q 0.079 -0.75 0.12 -0.709 Q 0.182 -0.647 0.223 -0.562 Q 0.289 -0.426 0.289 -0.25 Z"/></g></g></g><path fill="none" stroke="rgb(0,0,0)" paint-order="fill stroke markers" d=" M 239.91630353117947 203.47903831705474 L 307.5346356123214 203.47903831705474" stroke-opacity="0.8" stroke-linecap="round" stroke-linejoin="round" stroke-miterlimit="10" stroke-width="2.5"/><path fill="none" stroke="rgb(0,0,0)" paint-order="fill stroke markers" d=" M 307.5346356123214 203.47903831705474 L 329.32276483846715 266.58948159278725" stroke-opacity="0.8" stroke-linecap="round" stroke-linejoin="round" stroke-miterlimit="10" stroke-width="2.5"/><path fill="none" stroke="rgb(0,0,0)" paint-order="fill stroke markers" d=" M 329.32276483846715 266.58948159278725 L 292.50833959428985 304.90653643876783" stroke-opacity="0.8" stroke-linecap="round" stroke-linejoin="round" stroke-miterlimit="10" stroke-width="2.5"/><path fill="none" stroke="rgb(0,0,0)" paint-order="fill stroke markers" d=" M 292.50833959428985 304.90653643876783 L 392.4332081141998 355.24462809917327" stroke-opacity="0.8" stroke-linecap="round" stroke-linejoin="round" stroke-miterlimit="10" stroke-width="2.5"/><path fill="none" stroke="rgb(0,0,0)" paint-order="fill stroke markers" d=" M 392.4332081141998 355.24462809917327 L 462.3054845980466 345.4775356874528" stroke-opacity="0.8" stroke-linecap="round" stroke-linejoin="round" stroke-miterlimit="10" stroke-width="2.5"/><path fill="none" stroke="rgb(0,0,0)" paint-order="fill stroke markers" d=" M 462.3054845980466 345.4775356874528 L 611.8171299774601 322.93809166040563" stroke-opacity="0.8" stroke-linecap="round" stroke-linejoin="round" stroke-miterlimit="10" stroke-width="2.5"/><path fill="none" stroke="rgb(0,0,0)" paint-order="fill stroke markers" d=" M 611.8171299774601 322.93809166040563 L 710.9906836964683 301.1499624342599" stroke-opacity="0.8" stroke-linecap="round" stroke-linejoin="round" stroke-miterlimit="10" stroke-width="2.5"/><path fill="none" stroke="rgb(0,0,0)" paint-order="fill stroke markers" d=" M 710.9906836964683 301.1499624342599 L 780.1116453794135 256.0710743801651" stroke-opacity="0.8" stroke-linecap="round" stroke-linejoin="round" stroke-miterlimit="10" stroke-width="2.5"/><path fill="none" stroke="rgb(0,0,0)" paint-order="fill stroke markers" d=" M 780.1116453794135 256.0710743801651 L 786.1221637866261 203.47903831705474" stroke-opacity="0.8" stroke-linecap="round" stroke-linejoin="round" stroke-miterlimit="10" stroke-width="2.5"/><path fill="none" stroke="rgb(0,0,0)" paint-order="fill stroke markers" d=" M 786.1221637866261 203.47903831705474 L 768.8419233658898 163.65935386927123" stroke-opacity="0.8" stroke-linecap="round" stroke-linejoin="round" stroke-miterlimit="10" stroke-width="2.5"/><path fill="none" stroke="rgb(0,0,0)" paint-order="fill stroke markers" d=" M 768.8419233658898 163.65935386927123 L 719.2551465063857 142.62253944402707" stroke-opacity="0.8" stroke-linecap="round" stroke-linejoin="round" stroke-miterlimit="10" stroke-width="2.5"/><path fill="none" stroke="rgb(0,0,0)" paint-order="fill stroke markers" d=" M 719.2551465063857 142.62253944402707 L 699.7209616829447 125.3422990232908" stroke-opacity="0.8" stroke-linecap="round" stroke-linejoin="round" stroke-miterlimit="10" stroke-width="2.5"/><path fill="none" stroke="rgb(0,0,0)" paint-order="fill stroke markers" d=" M 699.7209616829447 125.3422990232908 L 649.382870022539 94.53839218632628" stroke-opacity="0.8" stroke-linecap="round" stroke-linejoin="round" stroke-miterlimit="10" stroke-width="2.5"/><path fill="none" stroke="rgb(0,0,0)" paint-order="fill stroke markers" d=" M 649.382870022539 94.53839218632628 L 608.0605559729522 75.0042073628853" stroke-opacity="0.8" stroke-linecap="round" stroke-linejoin="round" stroke-miterlimit="10" stroke-width="2.5"/><path fill="none" stroke="rgb(0,0,0)" paint-order="fill stroke markers" d=" M 608.0605559729522 75.0042073628853 L 505.1304282494364 73.50157776108215" stroke-opacity="0.8" stroke-linecap="round" stroke-linejoin="round" stroke-miterlimit="10" stroke-width="2.5"/><path fill="none" stroke="rgb(0,0,0)" paint-order="fill stroke markers" d=" M 505.1304282494364 73.50157776108215 L 483.3422990232907 107.31074380165303" stroke-opacity="0.8" stroke-linecap="round" stroke-linejoin="round" stroke-miterlimit="10" stroke-width="2.5"/><path fill="none" stroke="rgb(0,0,0)" paint-order="fill stroke markers" d=" M 483.3422990232907 107.31074380165303 L 463.8081141998497 147.88174305033812" stroke-opacity="0.8" stroke-linecap="round" stroke-linejoin="round" stroke-miterlimit="10" stroke-width="2.5"/><path fill="none" stroke="rgb(0,0,0)" paint-order="fill stroke markers" d=" M 463.8081141998497 147.88174305033812 L 405.20555972952656 150.88700225394442" stroke-opacity="0.8" stroke-linecap="round" stroke-linejoin="round" stroke-miterlimit="10" stroke-width="2.5"/><path fill="none" stroke="rgb(0,0,0)" paint-order="fill stroke markers" d=" M 405.20555972952656 150.88700225394442 L 370.64507888805406 157.64883546205857" stroke-opacity="0.8" stroke-linecap="round" stroke-linejoin="round" stroke-miterlimit="10" stroke-width="2.5"/><path fill="none" stroke="rgb(0,0,0)" paint-order="fill stroke markers" d=" M 370.64507888805406 157.64883546205857 L 294.010969196093 167.4159278737791" stroke-opacity="0.8" stroke-linecap="round" stroke-linejoin="round" stroke-miterlimit="10" stroke-width="2.5"/><path fill="none" stroke="rgb(0,0,0)" paint-order="fill stroke markers" d=" M 294.010969196093 167.4159278737791 L 240.66761833208102 147.88174305033812" stroke-opacity="0.8" stroke-linecap="round" stroke-linejoin="round" stroke-miterlimit="10" stroke-width="2.5"/><path fill="none" stroke="rgb(0,0,0)" paint-order="fill stroke markers" d=" M 240.66761833208102 147.88174305033812 L 215.87422990232898 159.90277986476332" stroke-opacity="0.8" stroke-linecap="round" stroke-linejoin="round" stroke-miterlimit="10" stroke-width="2.5"/><path fill="none" stroke="rgb(0,0,0)" paint-order="fill stroke markers" d=" M 215.87422990232898 159.90277986476332 L 219.63080390683686 179.43696468820423" stroke-opacity="0.8" stroke-linecap="round" stroke-linejoin="round" stroke-miterlimit="10" stroke-width="2.5"/><path fill="none" stroke="rgb(0,0,0)" paint-order="fill stroke markers" d=" M 219.63080390683686 179.43696468820423 L 239.91630353117947 203.47903831705474" stroke-opacity="0.8" stroke-linecap="round" stroke-linejoin="round" stroke-miterlimit="10" stroke-width="2.5"/><path fill="rgb(219,97,20)" stroke="none" paint-order="stroke fill markers" d=" M 134.50308039068355 262.6976709241171 C 134.50308039068355 265.45909467327107 132.26450413983753 267.6976709241171 129.50308039068355 267.6976709241171 C 126.74165664152959 267.6976709241171 124.50308039068355 265.45909467327107 124.50308039068355 262.6976709241171 C 124.50308039068355 259.93624717496317 126.74165664152959 257.6976709241171 129.50308039068355 257.6976709241171 C 132.26450413983753 257.6976709241171 134.50308039068355 259.93624717496317 134.50308039068355 262.6976709241171 Z" fill-opacity="1"/><path fill="none" stroke="rgb(0,0,0)" paint-order="fill stroke markers" d=" M 134.50308039068355 262.6976709241171 C 134.50308039068355 265.45909467327107 132.26450413983753 267.6976709241171 129.50308039068355 267.6976709241171 C 126.74165664152959 267.6976709241171 124.50308039068355 265.45909467327107 124.50308039068355 262.6976709241171 C 124.50308039068355 259.93624717496317 126.74165664152959 257.6976709241171 129.50308039068355 257.6976709241171 C 132.26450413983753 257.6976709241171 134.50308039068355 259.93624717496317 134.50308039068355 262.6976709241171 Z" stroke-opacity="1" stroke-linecap="round" stroke-linejoin="round" stroke-miterlimit="10"/><g transform="scale(19,19)"><g transform="translate(4.421052631578948,13.347368421052632) scale(1.4,1.4)"><g transform="translate(0,0)"><path fill="rgb(219,97,20)" stroke="none" paint-order="stroke fill markers" d=" M 0.76 -0.6950000000000001 L 0.6970000000000001 -0.44 Q 0.6920000000000001 -0.422 0.687 -0.421 L 0.686 -0.42 L 0.679 -0.42 Q 0.664 -0.42 0.664 -0.43 L 0.667 -0.47900000000000004 L 0.667 -0.481 Q 0.667 -0.605 0.589 -0.652 L 0.588 -0.653 Q 0.553 -0.674 0.506 -0.674 Q 0.4 -0.674 0.305 -0.595 Q 0.281 -0.5760000000000001 0.262 -0.553 Q 0.167 -0.442 0.145 -0.271 Q 0.14100000000000001 -0.24 0.14100000000000001 -0.217 Q 0.14100000000000001 -0.077 0.247 -0.028 Q 0.28800000000000003 -0.009000000000000001 0.337 -0.009000000000000001 Q 0.431 -0.009000000000000001 0.521 -0.082 Q 0.591 -0.14100000000000001 0.622 -0.24 Q 0.624 -0.25 0.635 -0.25 Q 0.647 -0.25 0.647 -0.24 Q 0.647 -0.222 0.624 -0.176 Q 0.593 -0.113 0.537 -0.064 Q 0.438 0.022 0.321 0.022 Q 0.193 0.022 0.116 -0.066 Q 0.05 -0.14100000000000001 0.05 -0.252 Q 0.05 -0.401 0.159 -0.531 Q 0.26 -0.652 0.398 -0.6910000000000001 Q 0.449 -0.705 0.498 -0.705 Q 0.607 -0.705 0.664 -0.616 L 0.734 -0.6930000000000001 Q 0.746 -0.705 0.749 -0.705 Q 0.76 -0.705 0.76 -0.6950000000000001 Z"/></g><g transform="translate(1.0647777777777776,0)"><path fill="rgb(219,97,20)" stroke="none" paint-order="stroke fill markers" d=" M 0.192 -0.378 Q 0.192 -0.34500000000000003 0.162 -0.33 Q 0.151 -0.325 0.139 -0.325 Q 0.106 -0.325 0.091 -0.355 Q 0.08600000000000001 -0.366 0.08600000000000001 -0.378 Q 0.08600000000000001 -0.41100000000000003 0.116 -0.426 Q 0.127 -0.431 0.139 -0.431 Q 0.17200000000000001 -0.431 0.187 -0.401 Q 0.192 -0.39 0.192 -0.378 M 0.192 -0.053 L 0.192 -0.053 Q 0.192 -0.02 0.162 -0.005 Q 0.151 0 0.139 0 Q 0.106 0 0.091 -0.03 Q 0.08600000000000001 -0.041 0.08600000000000001 -0.053 Q 0.08600000000000001 -0.08600000000000001 0.116 -0.101 Q 0.127 -0.106 0.139 -0.106 Q 0.17200000000000001 -0.106 0.187 -0.076 Q 0.192 -0.065 0.192 -0.053 Z"/></g><g transform="translate(1.6205555555555553,0) scale(0.1,0.1)"><text fill="rgb(219,97,20)" stroke="none" font-family="Serif" font-size="10px" font-style="normal" font-weight="normal" text-decoration="normal" x="0" y="0" text-anchor="start" dominant-baseline="alphabetic">外点</text><g transform="scale(10,10) translate(-1.6205555555555553,0)"/></g></g></g><path fill="rgb(46,125,50)" stroke="none" paint-order="stroke fill markers" d=" M 571.7818181818182 227.87272727272725 C 571.7818181818182 230.63415102188122 569.5432419309722 232.87272727272725 566.7818181818182 232.87272727272725 C 564.0203944326641 232.87272727272725 561.7818181818182 230.63415102188122 561.7818181818182 227.87272727272725 C 561.7818181818182 225.11130352357327 564.0203944326641 222.87272727272725 566.7818181818182 222.87272727272725 C 569.5432419309722 222.87272727272725 571.7818181818182 225.11130352357327 571.7818181818182 227.87272727272725 Z" fill-opacity="1"/><path fill="none" stroke="rgb(0,0,0)" paint-order="fill stroke markers" d=" M 571.7818181818182 227.87272727272725 C 571.7818181818182 230.63415102188122 569.5432419309722 232.87272727272725 566.7818181818182 232.87272727272725 C 564.0203944326641 232.87272727272725 561.7818181818182 230.63415102188122 561.7818181818182 227.87272727272725 C 561.7818181818182 225.11130352357327 564.0203944326641 222.87272727272725 566.7818181818182 222.87272727272725 C 569.5432419309722 222.87272727272725 571.7818181818182 225.11130352357327 571.7818181818182 227.87272727272725 Z" stroke-opacity="1" stroke-linecap="round" stroke-linejoin="round" stroke-miterlimit="10"/><g transform="scale(19,19)"><g transform="translate(27.42105263157895,11.189473684210526) scale(1.4,1.4)"><g transform="translate(0,0)"><path fill="rgb(46,125,50)" stroke="none" paint-order="stroke fill markers" d=" M 0.179 -0.115 L 0.527 -0.6990000000000001 Q 0.537 -0.715 0.553 -0.716 Q 0.5680000000000001 -0.716 0.5700000000000001 -0.706 Q 0.5710000000000001 -0.7030000000000001 0.5720000000000001 -0.6920000000000001 L 0.633 -0.067 Q 0.636 -0.042 0.645 -0.037 L 0.646 -0.037 L 0.646 -0.037 L 0.646 -0.037 L 0.646 -0.037 L 0.646 -0.036000000000000004 Q 0.658 -0.031 0.6980000000000001 -0.031 Q 0.72 -0.031 0.721 -0.02 Q 0.721 0 0.7030000000000001 0 L 0.591 -0.003 L 0.59 -0.003 L 0.466 0 L 0.465 0 Q 0.451 0 0.451 -0.011 Q 0.459 -0.03 0.47500000000000003 -0.031 Q 0.547 -0.031 0.547 -0.064 Q 0.547 -0.063 0.531 -0.231 L 0.28 -0.231 L 0.20400000000000001 -0.10300000000000001 Q 0.19 -0.078 0.19 -0.066 Q 0.19 -0.035 0.23700000000000002 -0.031 Q 0.253 -0.031 0.253 -0.019 Q 0.253 0 0.234 0 L 0.138 -0.003 L 0.134 -0.003 L 0.05 0 L 0.048 0 Q 0.035 0 0.035 -0.011 Q 0.035 -0.029 0.05 -0.03 L 0.05 -0.031 L 0.056 -0.031 Q 0.11900000000000001 -0.035 0.159 -0.085 Q 0.169 -0.098 0.179 -0.115 M 0.299 -0.262 L 0.528 -0.262 L 0.496 -0.592 L 0.299 -0.262 Z"/></g><g transform="translate(1.0277777777777777,0)"><path fill="rgb(46,125,50)" stroke="none" paint-order="stroke fill markers" d=" M 0.192 -0.378 Q 0.192 -0.34500000000000003 0.162 -0.33 Q 0.151 -0.325 0.139 -0.325 Q 0.106 -0.325 0.091 -0.355 Q 0.08600000000000001 -0.366 0.08600000000000001 -0.378 Q 0.08600000000000001 -0.41100000000000003 0.116 -0.426 Q 0.127 -0.431 0.139 -0.431 Q 0.17200000000000001 -0.431 0.187 -0.401 Q 0.192 -0.39 0.192 -0.378 M 0.192 -0.053 L 0.192 -0.053 Q 0.192 -0.02 0.162 -0.005 Q 0.151 0 0.139 0 Q 0.106 0 0.091 -0.03 Q 0.08600000000000001 -0.041 0.08600000000000001 -0.053 Q 0.08600000000000001 -0.08600000000000001 0.116 -0.101 Q 0.127 -0.106 0.139 -0.106 Q 0.17200000000000001 -0.106 0.187 -0.076 Q 0.192 -0.065 0.192 -0.053 Z"/></g><g transform="translate(1.5835555555555554,0) scale(0.1,0.1)"><text fill="rgb(46,125,50)" stroke="none" font-family="Serif" font-size="10px" font-style="normal" font-weight="normal" text-decoration="normal" x="0" y="0" text-anchor="start" dominant-baseline="alphabetic">内点</text><g transform="scale(10,10) translate(-1.5835555555555554,0)"/></g></g></g><path fill="rgb(21,101,192)" stroke="none" paint-order="stroke fill markers" d=" M 375.64507888805406 157.64883546205857 C 375.64507888805406 160.41025921121255 373.406502637208 162.64883546205857 370.64507888805406 162.64883546205857 C 367.8836551389001 162.64883546205857 365.64507888805406 160.41025921121255 365.64507888805406 157.64883546205857 C 365.64507888805406 154.8874117129046 367.8836551389001 152.64883546205857 370.64507888805406 152.64883546205857 C 373.406502637208 152.64883546205857 375.64507888805406 154.8874117129046 375.64507888805406 157.64883546205857 Z" fill-opacity="1"/><path fill="none" stroke="rgb(0,0,0)" paint-order="fill stroke markers" d=" M 375.64507888805406 157.64883546205857 C 375.64507888805406 160.41025921121255 373.406502637208 162.64883546205857 370.64507888805406 162.64883546205857 C 367.8836551389001 162.64883546205857 365.64507888805406 160.41025921121255 365.64507888805406 157.64883546205857 C 365.64507888805406 154.8874117129046 367.8836551389001 152.64883546205857 370.64507888805406 152.64883546205857 C 373.406502637208 152.64883546205857 375.64507888805406 154.8874117129046 375.64507888805406 157.64883546205857 Z" stroke-opacity="1" stroke-linecap="round" stroke-linejoin="round" stroke-miterlimit="10"/><g transform="scale(19,19)"><g transform="translate(16.31578947368421,7.768421052631579) scale(1.4,1.4)"><g transform="translate(0,0)"><path fill="rgb(21,101,192)" stroke="none" paint-order="stroke fill markers" d=" M 0.16 -0.078 L 0.294 -0.615 Q 0.298 -0.631 0.298 -0.634 Q 0.298 -0.646 0.28200000000000003 -0.649 L 0.281 -0.649 L 0.28 -0.649 Q 0.277 -0.649 0.271 -0.65 Q 0.254 -0.652 0.233 -0.652 Q 0.20700000000000002 -0.652 0.20500000000000002 -0.663 Q 0.20500000000000002 -0.681 0.22 -0.683 L 0.221 -0.683 L 0.222 -0.683 L 0.234 -0.683 L 0.5700000000000001 -0.683 Q 0.685 -0.683 0.734 -0.615 Q 0.756 -0.583 0.756 -0.545 Q 0.756 -0.464 0.666 -0.404 Q 0.665 -0.404 0.664 -0.403 Q 0.611 -0.369 0.547 -0.357 Q 0.649 -0.34500000000000003 0.687 -0.277 Q 0.7020000000000001 -0.249 0.7020000000000001 -0.216 Q 0.7020000000000001 -0.14300000000000002 0.632 -0.079 L 0.631 -0.078 Q 0.545 0 0.426 0 L 0.069 0 Q 0.044 0 0.042 -0.011 Q 0.042 -0.029 0.057 -0.031 L 0.069 -0.031 Q 0.134 -0.031 0.147 -0.045 Q 0.153 -0.052000000000000005 0.159 -0.073 Q 0.159 -0.074 0.16 -0.078 M 0.311 -0.366 L 0.457 -0.366 Q 0.556 -0.366 0.62 -0.438 Q 0.665 -0.489 0.665 -0.549 Q 0.665 -0.622 0.605 -0.644 Q 0.584 -0.652 0.556 -0.652 L 0.427 -0.652 Q 0.391 -0.652 0.383 -0.642 L 0.383 -0.642 L 0.383 -0.641 L 0.382 -0.641 L 0.382 -0.64 Q 0.378 -0.634 0.373 -0.614 L 0.311 -0.366 M 0.266 -0.031 L 0.402 -0.031 Q 0.498 -0.031 0.561 -0.10300000000000001 Q 0.609 -0.159 0.609 -0.227 Q 0.609 -0.3 0.557 -0.33 Q 0.531 -0.34400000000000003 0.494 -0.34400000000000003 L 0.305 -0.34400000000000003 L 0.23600000000000002 -0.065 Q 0.231 -0.047 0.231 -0.042 Q 0.231 -0.034 0.24 -0.032 L 0.24 -0.032 L 0.24 -0.032 L 0.244 -0.032 Q 0.25 -0.031 0.266 -0.031 Z"/></g><g transform="translate(1.0867777777777778,0)"><path fill="rgb(21,101,192)" stroke="none" paint-order="stroke fill markers" d=" M 0.192 -0.378 Q 0.192 -0.34500000000000003 0.162 -0.33 Q 0.151 -0.325 0.139 -0.325 Q 0.106 -0.325 0.091 -0.355 Q 0.08600000000000001 -0.366 0.08600000000000001 -0.378 Q 0.08600000000000001 -0.41100000000000003 0.116 -0.426 Q 0.127 -0.431 0.139 -0.431 Q 0.17200000000000001 -0.431 0.187 -0.401 Q 0.192 -0.39 0.192 -0.378 M 0.192 -0.053 L 0.192 -0.053 Q 0.192 -0.02 0.162 -0.005 Q 0.151 0 0.139 0 Q 0.106 0 0.091 -0.03 Q 0.08600000000000001 -0.041 0.08600000000000001 -0.053 Q 0.08600000000000001 -0.08600000000000001 0.116 -0.101 Q 0.127 -0.106 0.139 -0.106 Q 0.17200000000000001 -0.106 0.187 -0.076 Q 0.192 -0.065 0.192 -0.053 Z"/></g><g transform="translate(1.6425555555555555,0) scale(0.1,0.1)"><text fill="rgb(21,101,192)" stroke="none" font-family="Serif" font-size="10px" font-style="normal" font-weight="normal" text-decoration="normal" x="0" y="0" text-anchor="start" dominant-baseline="alphabetic">边界点</text><g transform="scale(10,10) translate(-1.6425555555555555,0)"/></g></g></g><g transform="scale(19,19)"><g transform="translate(37.26315789473684,10.282031578947368) scale(1.8,1.8)"><g transform="translate(0,0)"><path fill="rgb(0,0,0)" stroke="none" paint-order="stroke fill markers" d=" M 0.645 -0.6950000000000001 L 0.645 -0.6950000000000001 L 0.591 -0.47600000000000003 Q 0.582 -0.457 0.5760000000000001 -0.456 Q 0.5640000000000001 -0.456 0.5640000000000001 -0.466 L 0.5680000000000001 -0.52 L 0.5680000000000001 -0.522 Q 0.5680000000000001 -0.66 0.452 -0.675 Q 0.439 -0.677 0.424 -0.677 Q 0.34600000000000003 -0.677 0.291 -0.614 Q 0.249 -0.5660000000000001 0.249 -0.511 Q 0.249 -0.451 0.298 -0.425 Q 0.304 -0.422 0.31 -0.42 Q 0.315 -0.419 0.377 -0.402 Q 0.46900000000000003 -0.378 0.487 -0.366 Q 0.495 -0.361 0.504 -0.352 Q 0.553 -0.306 0.553 -0.23500000000000001 Q 0.553 -0.14300000000000002 0.481 -0.064 Q 0.399 0.019 0.299 0.022 Q 0.183 0.022 0.13 -0.05 L 0.081 0.007 Q 0.068 0.022 0.063 0.022 Q 0.052000000000000005 0.022 0.052000000000000005 0.012 L 0.109 -0.213 L 0.109 -0.215 Q 0.111 -0.222 0.112 -0.223 Q 0.116 -0.227 0.122 -0.227 Q 0.134 -0.227 0.134 -0.216 L 0.132 -0.209 Q 0.126 -0.17300000000000001 0.126 -0.155 Q 0.126 -0.042 0.241 -0.016 Q 0.269 -0.009000000000000001 0.301 -0.009000000000000001 Q 0.38 -0.009000000000000001 0.436 -0.077 Q 0.481 -0.13 0.481 -0.193 Q 0.481 -0.271 0.40900000000000003 -0.294 L 0.389 -0.299 L 0.28200000000000003 -0.327 Q 0.216 -0.34600000000000003 0.19 -0.40700000000000003 Q 0.178 -0.436 0.178 -0.46900000000000003 Q 0.178 -0.56 0.254 -0.633 Q 0.33 -0.705 0.425 -0.705 Q 0.527 -0.705 0.5680000000000001 -0.633 L 0.616 -0.6900000000000001 Q 0.629 -0.705 0.634 -0.705 Q 0.645 -0.705 0.645 -0.6950000000000001 Z"/></g></g></g></g></g></svg>